<svg width="1440" height="399" viewBox="0 0 1440 399" fill="none" xmlns="http://www.w3.org/2000/svg">
<g clip-path="url(#clip0_1_82)">
<g style="mix-blend-mode:soft-light" opacity="0.7">
<path d="M-179.332 12.8462H-222.153V55.6672M-179.332 12.8462V55.6672M-179.332 12.8462H-136.511M-179.332 55.6672H-222.153M-179.332 55.6672V98.4881M-179.332 55.6672H-136.511M-222.153 55.6672V98.4881M-179.332 98.4881H-222.153M-179.332 98.4881V141.309M-179.332 98.4881H-136.511M-222.153 98.4881V141.309M-179.332 141.309H-222.153M-179.332 141.309V184.13M-179.332 141.309H-136.511M-222.153 141.309V184.13M-179.332 184.13H-222.153M-179.332 184.13V226.951M-179.332 184.13H-136.511M-222.153 184.13V226.951M-179.332 226.951H-222.153M-179.332 226.951V269.772M-179.332 226.951H-136.511M-222.153 226.951V269.772M-179.332 269.772H-222.153M-179.332 269.772V312.593M-179.332 269.772H-136.511M-222.153 269.772V312.593M-179.332 312.593H-222.153M-179.332 312.593V355.414M-179.332 312.593H-136.511M-222.153 312.593V355.414M-179.332 355.414H-222.153M-179.332 355.414V398.235M-179.332 355.414H-136.511M-222.153 355.414V398.235M-179.332 398.235H-222.153M-179.332 398.235V441.056M-179.332 398.235H-136.511M-222.153 398.235V441.056M-179.332 441.056H-222.153M-179.332 441.056V483.877M-179.332 441.056H-136.511M-222.153 441.056V483.877M-179.332 483.877H-222.153M-179.332 483.877V526.698M-179.332 483.877H-136.511M-222.153 483.877V526.698M-179.332 526.698H-222.153M-179.332 526.698V569.519M-179.332 526.698H-136.511M-222.153 526.698V569.519M-179.332 569.519H-222.153M-179.332 569.519V612.34M-179.332 569.519H-136.511M-222.153 569.519V612.34M-179.332 612.34H-222.153M-179.332 612.34V655.161M-179.332 612.34H-136.511M-222.153 612.34V655.161M-179.332 655.161H-222.153M-179.332 655.161V697.982M-179.332 655.161H-136.511M-222.153 655.161V697.982M-179.332 697.982H-222.153M-179.332 697.982V740.803M-179.332 697.982H-136.511M-222.153 697.982V740.803M-179.332 740.803H-222.153M-179.332 740.803V783.624M-179.332 740.803H-136.511M-222.153 740.803V783.624M-179.332 783.624H-222.153M-179.332 783.624V826.445M-179.332 783.624H-136.511M-222.153 783.624V826.445M-179.332 826.445H-222.153M-179.332 826.445V869.266M-179.332 826.445H-136.511M-222.153 826.445V869.266H-179.332M-179.332 869.266H-136.511M-136.511 12.8462V55.6672M-136.511 12.8462H-93.6903M-136.511 55.6672V98.4881M-136.511 55.6672H-93.6903M-136.511 98.4881V141.309M-136.511 98.4881H-93.6903M-136.511 141.309V184.13M-136.511 141.309H-93.6903M-136.511 184.13V226.951M-136.511 184.13H-93.6903M-136.511 226.951V269.772M-136.511 226.951H-93.6903M-136.511 269.772V312.593M-136.511 269.772H-93.6903M-136.511 312.593V355.414M-136.511 312.593H-93.6903M-136.511 355.414V398.235M-136.511 355.414H-93.6903M-136.511 398.235V441.056M-136.511 398.235H-93.6903M-136.511 441.056V483.877M-136.511 441.056H-93.6903M-136.511 483.877V526.698M-136.511 483.877H-93.6903M-136.511 526.698V569.519M-136.511 526.698H-93.6903M-136.511 569.519V612.34M-136.511 569.519H-93.6903M-136.511 612.34V655.161M-136.511 612.34H-93.6903M-136.511 655.161V697.982M-136.511 655.161H-93.6903M-136.511 697.982V740.803M-136.511 697.982H-93.6903M-136.511 740.803V783.624M-136.511 740.803H-93.6903M-136.511 783.624V826.445M-136.511 783.624H-93.6903M-136.511 826.445V869.266M-136.511 826.445H-93.6903M-136.511 869.266H-93.6903M-93.6903 12.8462V55.6672M-93.6903 12.8462H-50.8693M-93.6903 55.6672V98.4881M-93.6903 55.6672H-50.8693M-93.6903 98.4881V141.309M-93.6903 98.4881H-50.8693M-93.6903 141.309V184.13M-93.6903 141.309H-50.8693M-93.6903 184.13V226.951M-93.6903 184.13H-50.8693M-93.6903 226.951V269.772M-93.6903 226.951H-50.8693M-93.6903 269.772V312.593M-93.6903 269.772H-50.8693M-93.6903 312.593V355.414M-93.6903 312.593H-50.8693M-93.6903 355.414V398.235M-93.6903 355.414H-50.8693M-93.6903 398.235V441.056M-93.6903 398.235H-50.8693M-93.6903 441.056V483.877M-93.6903 441.056H-50.8693M-93.6903 483.877V526.698M-93.6903 483.877H-50.8693M-93.6903 526.698V569.519M-93.6903 526.698H-50.8693M-93.6903 569.519V612.34M-93.6903 569.519H-50.8693M-93.6903 612.34V655.161M-93.6903 612.34H-50.8693M-93.6903 655.161V697.982M-93.6903 655.161H-50.8693M-93.6903 697.982V740.803M-93.6903 697.982H-50.8693M-93.6903 740.803V783.624M-93.6903 740.803H-50.8693M-93.6903 783.624V826.445M-93.6903 783.624H-50.8693M-93.6903 826.445V869.266M-93.6903 826.445H-50.8693M-93.6903 869.266H-50.8693M-50.8693 12.8462V55.6672M-50.8693 12.8462H-8.04833M-50.8693 55.6672V98.4881M-50.8693 55.6672H-8.04833M-50.8693 98.4881V141.309M-50.8693 98.4881H-8.04833M-50.8693 141.309V184.13M-50.8693 141.309H-8.04833M-50.8693 184.13V226.951M-50.8693 184.13H-8.04833M-50.8693 226.951V269.772M-50.8693 226.951H-8.04833M-50.8693 269.772V312.593M-50.8693 269.772H-8.04833M-50.8693 312.593V355.414M-50.8693 312.593H-8.04833M-50.8693 355.414V398.235M-50.8693 355.414H-8.04833M-50.8693 398.235V441.056M-50.8693 398.235H-8.04833M-50.8693 441.056V483.877M-50.8693 441.056H-8.04833M-50.8693 483.877V526.698M-50.8693 483.877H-8.04833M-50.8693 526.698V569.519M-50.8693 526.698H-8.04833M-50.8693 569.519V612.34M-50.8693 569.519H-8.04833M-50.8693 612.34V655.161M-50.8693 612.34H-8.04833M-50.8693 655.161V697.982M-50.8693 655.161H-8.04833M-50.8693 697.982V740.803M-50.8693 697.982H-8.04833M-50.8693 740.803V783.624M-50.8693 740.803H-8.04833M-50.8693 783.624V826.445M-50.8693 783.624H-8.04833M-50.8693 826.445V869.266M-50.8693 826.445H-8.04833M-50.8693 869.266H-8.04833M-8.04833 12.8462V55.6672M-8.04833 12.8462H34.7726M-8.04833 55.6672V98.4881M-8.04833 55.6672H34.7726M-8.04833 98.4881V141.309M-8.04833 98.4881H34.7726M-8.04833 141.309V184.13M-8.04833 141.309H34.7726M-8.04833 184.13V226.951M-8.04833 184.13H34.7726M-8.04833 226.951V269.772M-8.04833 226.951H34.7726M-8.04833 269.772V312.593M-8.04833 269.772H34.7726M-8.04833 312.593V355.414M-8.04833 312.593H34.7726M-8.04833 355.414V398.235M-8.04833 355.414H34.7726M-8.04833 398.235V441.056M-8.04833 398.235H34.7726M-8.04833 441.056V483.877M-8.04833 441.056H34.7726M-8.04833 483.877V526.698M-8.04833 483.877H34.7726M-8.04833 526.698V569.519M-8.04833 526.698H34.7726M-8.04833 569.519V612.34M-8.04833 569.519H34.7726M-8.04833 612.34V655.161M-8.04833 612.34H34.7726M-8.04833 655.161V697.982M-8.04833 655.161H34.7726M-8.04833 697.982V740.803M-8.04833 697.982H34.7726M-8.04833 740.803V783.624M-8.04833 740.803H34.7726M-8.04833 783.624V826.445M-8.04833 783.624H34.7726M-8.04833 826.445V869.266M-8.04833 826.445H34.7726M-8.04833 869.266H34.7726M34.7726 12.8462V55.6672M34.7726 12.8462H77.5936M34.7726 55.6672V98.4881M34.7726 55.6672H77.5936M34.7726 98.4881V141.309M34.7726 98.4881H77.5936M34.7726 141.309V184.13M34.7726 141.309H77.5936M34.7726 184.13V226.951M34.7726 184.13H77.5936M34.7726 226.951V269.772M34.7726 226.951H77.5936M34.7726 269.772V312.593M34.7726 269.772H77.5936M34.7726 312.593V355.414M34.7726 312.593H77.5936M34.7726 355.414V398.235M34.7726 355.414H77.5936M34.7726 398.235V441.056M34.7726 398.235H77.5936M34.7726 441.056V483.877M34.7726 441.056H77.5936M34.7726 483.877V526.698M34.7726 483.877H77.5936M34.7726 526.698V569.519M34.7726 526.698H77.5936M34.7726 569.519V612.34M34.7726 569.519H77.5936M34.7726 612.34V655.161M34.7726 612.34H77.5936M34.7726 655.161V697.982M34.7726 655.161H77.5936M34.7726 697.982V740.803M34.7726 697.982H77.5936M34.7726 740.803V783.624M34.7726 740.803H77.5936M34.7726 783.624V826.445M34.7726 783.624H77.5936M34.7726 826.445V869.266M34.7726 826.445H77.5936M34.7726 869.266H77.5936M77.5936 12.8462V55.6672M77.5936 12.8462H120.415M77.5936 55.6672V98.4881M77.5936 55.6672H120.415M77.5936 98.4881V141.309M77.5936 98.4881H120.415M77.5936 141.309V184.13M77.5936 141.309H120.415M77.5936 184.13V226.951M77.5936 184.13H120.415M77.5936 226.951V269.772M77.5936 226.951H120.415M77.5936 269.772V312.593M77.5936 269.772H120.415M77.5936 312.593V355.414M77.5936 312.593H120.415M77.5936 355.414V398.235M77.5936 355.414H120.415M77.5936 398.235V441.056M77.5936 398.235H120.415M77.5936 441.056V483.877M77.5936 441.056H120.415M77.5936 483.877V526.698M77.5936 483.877H120.415M77.5936 526.698V569.519M77.5936 526.698H120.415M77.5936 569.519V612.34M77.5936 569.519H120.415M77.5936 612.34V655.161M77.5936 612.34H120.415M77.5936 655.161V697.982M77.5936 655.161H120.415M77.5936 697.982V740.803M77.5936 697.982H120.415M77.5936 740.803V783.624M77.5936 740.803H120.415M77.5936 783.624V826.445M77.5936 783.624H120.415M77.5936 826.445V869.266M77.5936 826.445H120.415M77.5936 869.266H120.415M120.415 12.8462V55.6672M120.415 12.8462H163.236M120.415 55.6672V98.4881M120.415 55.6672H163.236M120.415 98.4881V141.309M120.415 98.4881H163.236M120.415 141.309V184.13M120.415 141.309H163.236M120.415 184.13V226.951M120.415 184.13H163.236M120.415 226.951V269.772M120.415 226.951H163.236M120.415 269.772V312.593M120.415 269.772H163.236M120.415 312.593V355.414M120.415 312.593H163.236M120.415 355.414V398.235M120.415 355.414H163.236M120.415 398.235V441.056M120.415 398.235H163.236M120.415 441.056V483.877M120.415 441.056H163.236M120.415 483.877V526.698M120.415 483.877H163.236M120.415 526.698V569.519M120.415 526.698H163.236M120.415 569.519V612.34M120.415 569.519H163.236M120.415 612.34V655.161M120.415 612.34H163.236M120.415 655.161V697.982M120.415 655.161H163.236M120.415 697.982V740.803M120.415 697.982H163.236M120.415 740.803V783.624M120.415 740.803H163.236M120.415 783.624V826.445M120.415 783.624H163.236M120.415 826.445V869.266M120.415 826.445H163.236M120.415 869.266H163.236M163.236 12.8462V55.6672M163.236 12.8462H206.057M163.236 55.6672V98.4881M163.236 55.6672H206.057M163.236 98.4881V141.309M163.236 98.4881H206.057M163.236 141.309V184.13M163.236 141.309H206.057M163.236 184.13V226.951M163.236 184.13H206.057M163.236 226.951V269.772M163.236 226.951H206.057M163.236 269.772V312.593M163.236 269.772H206.057M163.236 312.593V355.414M163.236 312.593H206.057M163.236 355.414V398.235M163.236 355.414H206.057M163.236 398.235V441.056M163.236 398.235H206.057M163.236 441.056V483.877M163.236 441.056H206.057M163.236 483.877V526.698M163.236 483.877H206.057M163.236 526.698V569.519M163.236 526.698H206.057M163.236 569.519V612.34M163.236 569.519H206.057M163.236 612.34V655.161M163.236 612.34H206.057M163.236 655.161V697.982M163.236 655.161H206.057M163.236 697.982V740.803M163.236 697.982H206.057M163.236 740.803V783.624M163.236 740.803H206.057M163.236 783.624V826.445M163.236 783.624H206.057M163.236 826.445V869.266M163.236 826.445H206.057M163.236 869.266H206.057M206.057 12.8462V55.6672M206.057 12.8462H248.878M206.057 55.6672V98.4881M206.057 55.6672H248.878M206.057 98.4881V141.309M206.057 98.4881H248.878M206.057 141.309V184.13M206.057 141.309H248.878M206.057 184.13V226.951M206.057 184.13H248.878M206.057 226.951V269.772M206.057 226.951H248.878M206.057 269.772V312.593M206.057 269.772H248.878M206.057 312.593V355.414M206.057 312.593H248.878M206.057 355.414V398.235M206.057 355.414H248.878M206.057 398.235V441.056M206.057 398.235H248.878M206.057 441.056V483.877M206.057 441.056H248.878M206.057 483.877V526.698M206.057 483.877H248.878M206.057 526.698V569.519M206.057 526.698H248.878M206.057 569.519V612.34M206.057 569.519H248.878M206.057 612.34V655.161M206.057 612.34H248.878M206.057 655.161V697.982M206.057 655.161H248.878M206.057 697.982V740.803M206.057 697.982H248.878M206.057 740.803V783.624M206.057 740.803H248.878M206.057 783.624V826.445M206.057 783.624H248.878M206.057 826.445V869.266M206.057 826.445H248.878M206.057 869.266H248.878M248.878 12.8462V55.6672M248.878 12.8462H291.698M248.878 55.6672V98.4881M248.878 55.6672H291.698M248.878 98.4881V141.309M248.878 98.4881H291.698M248.878 141.309V184.13M248.878 141.309H291.698M248.878 184.13V226.951M248.878 184.13H291.698M248.878 226.951V269.772M248.878 226.951H291.698M248.878 269.772V312.593M248.878 269.772H291.698M248.878 312.593V355.414M248.878 312.593H291.698M248.878 355.414V398.235M248.878 355.414H291.698M248.878 398.235V441.056M248.878 398.235H291.698M248.878 441.056V483.877M248.878 441.056H291.698M248.878 483.877V526.698M248.878 483.877H291.698M248.878 526.698V569.519M248.878 526.698H291.698M248.878 569.519V612.34M248.878 569.519H291.698M248.878 612.34V655.161M248.878 612.34H291.698M248.878 655.161V697.982M248.878 655.161H291.698M248.878 697.982V740.803M248.878 697.982H291.698M248.878 740.803V783.624M248.878 740.803H291.698M248.878 783.624V826.445M248.878 783.624H291.698M248.878 826.445V869.266M248.878 826.445H291.698M248.878 869.266H291.698M291.698 12.8462V55.6672M291.698 12.8462H334.519M291.698 55.6672V98.4881M291.698 55.6672H334.519M291.698 98.4881V141.309M291.698 98.4881H334.519M291.698 141.309V184.13M291.698 141.309H334.519M291.698 184.13V226.951M291.698 184.13H334.519M291.698 226.951V269.772M291.698 226.951H334.519M291.698 269.772V312.593M291.698 269.772H334.519M291.698 312.593V355.414M291.698 312.593H334.519M291.698 355.414V398.235M291.698 355.414H334.519M291.698 398.235V441.056M291.698 398.235H334.519M291.698 441.056V483.877M291.698 441.056H334.519M291.698 483.877V526.698M291.698 483.877H334.519M291.698 526.698V569.519M291.698 526.698H334.519M291.698 569.519V612.34M291.698 569.519H334.519M291.698 612.34V655.161M291.698 612.34H334.519M291.698 655.161V697.982M291.698 655.161H334.519M291.698 697.982V740.803M291.698 697.982H334.519M291.698 740.803V783.624M291.698 740.803H334.519M291.698 783.624V826.445M291.698 783.624H334.519M291.698 826.445V869.266M291.698 826.445H334.519M291.698 869.266H334.519M334.519 12.8462V55.6672M334.519 12.8462H377.34M334.519 55.6672V98.4881M334.519 55.6672H377.34M334.519 98.4881V141.309M334.519 98.4881H377.34M334.519 141.309V184.13M334.519 141.309H377.34M334.519 184.13V226.951M334.519 184.13H377.34M334.519 226.951V269.772M334.519 226.951H377.34M334.519 269.772V312.593M334.519 269.772H377.34M334.519 312.593V355.414M334.519 312.593H377.34M334.519 355.414V398.235M334.519 355.414H377.34M334.519 398.235V441.056M334.519 398.235H377.34M334.519 441.056V483.877M334.519 441.056H377.34M334.519 483.877V526.698M334.519 483.877H377.34M334.519 526.698V569.519M334.519 526.698H377.34M334.519 569.519V612.34M334.519 569.519H377.34M334.519 612.34V655.161M334.519 612.34H377.34M334.519 655.161V697.982M334.519 655.161H377.34M334.519 697.982V740.803M334.519 697.982H377.34M334.519 740.803V783.624M334.519 740.803H377.34M334.519 783.624V826.445M334.519 783.624H377.34M334.519 826.445V869.266M334.519 826.445H377.34M334.519 869.266H377.34M377.34 12.8462V55.6672M377.34 12.8462H420.161M377.34 55.6672V98.4881M377.34 55.6672H420.161M377.34 98.4881V141.309M377.34 98.4881H420.161M377.34 141.309V184.13M377.34 141.309H420.161M377.34 184.13V226.951M377.34 184.13H420.161M377.34 226.951V269.772M377.34 226.951H420.161M377.34 269.772V312.593M377.34 269.772H420.161M377.34 312.593V355.414M377.34 312.593H420.161M377.34 355.414V398.235M377.34 355.414H420.161M377.34 398.235V441.056M377.34 398.235H420.161M377.34 441.056V483.877M377.34 441.056H420.161M377.34 483.877V526.698M377.34 483.877H420.161M377.34 526.698V569.519M377.34 526.698H420.161M377.34 569.519V612.34M377.34 569.519H420.161M377.34 612.34V655.161M377.34 612.34H420.161M377.34 655.161V697.982M377.34 655.161H420.161M377.34 697.982V740.803M377.34 697.982H420.161M377.34 740.803V783.624M377.34 740.803H420.161M377.34 783.624V826.445M377.34 783.624H420.161M377.34 826.445V869.266M377.34 826.445H420.161M377.34 869.266H420.161M420.161 12.8462V55.6672M420.161 12.8462H462.982M420.161 55.6672V98.4881M420.161 55.6672H462.982M420.161 98.4881V141.309M420.161 98.4881H462.982M420.161 141.309V184.13M420.161 141.309H462.982M420.161 184.13V226.951M420.161 184.13H462.982M420.161 226.951V269.772M420.161 226.951H462.982M420.161 269.772V312.593M420.161 269.772H462.982M420.161 312.593V355.414M420.161 312.593H462.982M420.161 355.414V398.235M420.161 355.414H462.982M420.161 398.235V441.056M420.161 398.235H462.982M420.161 441.056V483.877M420.161 441.056H462.982M420.161 483.877V526.698M420.161 483.877H462.982M420.161 526.698V569.519M420.161 526.698H462.982M420.161 569.519V612.34M420.161 569.519H462.982M420.161 612.34V655.161M420.161 612.34H462.982M420.161 655.161V697.982M420.161 655.161H462.982M420.161 697.982V740.803M420.161 697.982H462.982M420.161 740.803V783.624M420.161 740.803H462.982M420.161 783.624V826.445M420.161 783.624H462.982M420.161 826.445V869.266M420.161 826.445H462.982M420.161 869.266H462.982M462.982 12.8462V55.6672M462.982 12.8462H505.803M462.982 55.6672V98.4881M462.982 55.6672H505.803M462.982 98.4881V141.309M462.982 98.4881H505.803M462.982 141.309V184.13M462.982 141.309H505.803M462.982 184.13V226.951M462.982 184.13H505.803M462.982 226.951V269.772M462.982 226.951H505.803M462.982 269.772V312.593M462.982 269.772H505.803M462.982 312.593V355.414M462.982 312.593H505.803M462.982 355.414V398.235M462.982 355.414H505.803M462.982 398.235V441.056M462.982 398.235H505.803M462.982 441.056V483.877M462.982 441.056H505.803M462.982 483.877V526.698M462.982 483.877H505.803M462.982 526.698V569.519M462.982 526.698H505.803M462.982 569.519V612.34M462.982 569.519H505.803M462.982 612.34V655.161M462.982 612.34H505.803M462.982 655.161V697.982M462.982 655.161H505.803M462.982 697.982V740.803M462.982 697.982H505.803M462.982 740.803V783.624M462.982 740.803H505.803M462.982 783.624V826.445M462.982 783.624H505.803M462.982 826.445V869.266M462.982 826.445H505.803M462.982 869.266H505.803M505.803 12.8462V55.6672M505.803 12.8462H548.624M505.803 55.6672V98.4881M505.803 55.6672H548.624M505.803 98.4881V141.309M505.803 98.4881H548.624M505.803 141.309V184.13M505.803 141.309H548.624M505.803 184.13V226.951M505.803 184.13H548.624M505.803 226.951V269.772M505.803 226.951H548.624M505.803 269.772V312.593M505.803 269.772H548.624M505.803 312.593V355.414M505.803 312.593H548.624M505.803 355.414V398.235M505.803 355.414H548.624M505.803 398.235V441.056M505.803 398.235H548.624M505.803 441.056V483.877M505.803 441.056H548.624M505.803 483.877V526.698M505.803 483.877H548.624M505.803 526.698V569.519M505.803 526.698H548.624M505.803 569.519V612.34M505.803 569.519H548.624M505.803 612.34V655.161M505.803 612.34H548.624M505.803 655.161V697.982M505.803 655.161H548.624M505.803 697.982V740.803M505.803 697.982H548.624M505.803 740.803V783.624M505.803 740.803H548.624M505.803 783.624V826.445M505.803 783.624H548.624M505.803 826.445V869.266M505.803 826.445H548.624M505.803 869.266H548.624M548.624 12.8462V55.6672M548.624 12.8462H591.445M548.624 55.6672V98.4881M548.624 55.6672H591.445M548.624 98.4881V141.309M548.624 98.4881H591.445M548.624 141.309V184.13M548.624 141.309H591.445M548.624 184.13V226.951M548.624 184.13H591.445M548.624 226.951V269.772M548.624 226.951H591.445M548.624 269.772V312.593M548.624 269.772H591.445M548.624 312.593V355.414M548.624 312.593H591.445M548.624 355.414V398.235M548.624 355.414H591.445M548.624 398.235V441.056M548.624 398.235H591.445M548.624 441.056V483.877M548.624 441.056H591.445M548.624 483.877V526.698M548.624 483.877H591.445M548.624 526.698V569.519M548.624 526.698H591.445M548.624 569.519V612.34M548.624 569.519H591.445M548.624 612.34V655.161M548.624 612.34H591.445M548.624 655.161V697.982M548.624 655.161H591.445M548.624 697.982V740.803M548.624 697.982H591.445M548.624 740.803V783.624M548.624 740.803H591.445M548.624 783.624V826.445M548.624 783.624H591.445M548.624 826.445V869.266M548.624 826.445H591.445M548.624 869.266H591.445M591.445 12.8462V55.6672M591.445 12.8462H634.266M591.445 55.6672V98.4881M591.445 55.6672H634.266M591.445 98.4881V141.309M591.445 98.4881H634.266M591.445 141.309V184.13M591.445 141.309H634.266M591.445 184.13V226.951M591.445 184.13H634.266M591.445 226.951V269.772M591.445 226.951H634.266M591.445 269.772V312.593M591.445 269.772H634.266M591.445 312.593V355.414M591.445 312.593H634.266M591.445 355.414V398.235M591.445 355.414H634.266M591.445 398.235V441.056M591.445 398.235H634.266M591.445 441.056V483.877M591.445 441.056H634.266M591.445 483.877V526.698M591.445 483.877H634.266M591.445 526.698V569.519M591.445 526.698H634.266M591.445 569.519V612.34M591.445 569.519H634.266M591.445 612.34V655.161M591.445 612.34H634.266M591.445 655.161V697.982M591.445 655.161H634.266M591.445 697.982V740.803M591.445 697.982H634.266M591.445 740.803V783.624M591.445 740.803H634.266M591.445 783.624V826.445M591.445 783.624H634.266M591.445 826.445V869.266M591.445 826.445H634.266M591.445 869.266H634.266M634.266 12.8462V55.6672M634.266 12.8462H677.087M634.266 55.6672V98.4881M634.266 55.6672H677.087M634.266 98.4881V141.309M634.266 98.4881H677.087M634.266 141.309V184.13M634.266 141.309H677.087M634.266 184.13V226.951M634.266 184.13H677.087M634.266 226.951V269.772M634.266 226.951H677.087M634.266 269.772V312.593M634.266 269.772H677.087M634.266 312.593V355.414M634.266 312.593H677.087M634.266 355.414V398.235M634.266 355.414H677.087M634.266 398.235V441.056M634.266 398.235H677.087M634.266 441.056V483.877M634.266 441.056H677.087M634.266 483.877V526.698M634.266 483.877H677.087M634.266 526.698V569.519M634.266 526.698H677.087M634.266 569.519V612.34M634.266 569.519H677.087M634.266 612.34V655.161M634.266 612.34H677.087M634.266 655.161V697.982M634.266 655.161H677.087M634.266 697.982V740.803M634.266 697.982H677.087M634.266 740.803V783.624M634.266 740.803H677.087M634.266 783.624V826.445M634.266 783.624H677.087M634.266 826.445V869.266M634.266 826.445H677.087M634.266 869.266H677.087M677.087 12.8462V55.6672M677.087 12.8462H719.908M677.087 55.6672V98.4881M677.087 55.6672H719.908M677.087 98.4881V141.309M677.087 98.4881H719.908M677.087 141.309V184.13M677.087 141.309H719.908M677.087 184.13V226.951M677.087 184.13H719.908M677.087 226.951V269.772M677.087 226.951H719.908M677.087 269.772V312.593M677.087 269.772H719.908M677.087 312.593V355.414M677.087 312.593H719.908M677.087 355.414V398.235M677.087 355.414H719.908M677.087 398.235V441.056M677.087 398.235H719.908M677.087 441.056V483.877M677.087 441.056H719.908M677.087 483.877V526.698M677.087 483.877H719.908M677.087 526.698V569.519M677.087 526.698H719.908M677.087 569.519V612.34M677.087 569.519H719.908M677.087 612.34V655.161M677.087 612.34H719.908M677.087 655.161V697.982M677.087 655.161H719.908M677.087 697.982V740.803M677.087 697.982H719.908M677.087 740.803V783.624M677.087 740.803H719.908M677.087 783.624V826.445M677.087 783.624H719.908M677.087 826.445V869.266M677.087 826.445H719.908M677.087 869.266H719.908M719.908 12.8462V55.6672M719.908 12.8462H762.729M719.908 55.6672V98.4881M719.908 55.6672H762.729M719.908 98.4881V141.309M719.908 98.4881H762.729M719.908 141.309V184.13M719.908 141.309H762.729M719.908 184.13V226.951M719.908 184.13H762.729M719.908 226.951V269.772M719.908 226.951H762.729M719.908 269.772V312.593M719.908 269.772H762.729M719.908 312.593V355.414M719.908 312.593H762.729M719.908 355.414V398.235M719.908 355.414H762.729M719.908 398.235V441.056M719.908 398.235H762.729M719.908 441.056V483.877M719.908 441.056H762.729M719.908 483.877V526.698M719.908 483.877H762.729M719.908 526.698V569.519M719.908 526.698H762.729M719.908 569.519V612.34M719.908 569.519H762.729M719.908 612.34V655.161M719.908 612.34H762.729M719.908 655.161V697.982M719.908 655.161H762.729M719.908 697.982V740.803M719.908 697.982H762.729M719.908 740.803V783.624M719.908 740.803H762.729M719.908 783.624V826.445M719.908 783.624H762.729M719.908 826.445V869.266M719.908 826.445H762.729M719.908 869.266H762.729M762.729 12.8462V55.6672M762.729 12.8462H805.55M762.729 55.6672V98.4881M762.729 55.6672H805.55M762.729 98.4881V141.309M762.729 98.4881H805.55M762.729 141.309V184.13M762.729 141.309H805.55M762.729 184.13V226.951M762.729 184.13H805.55M762.729 226.951V269.772M762.729 226.951H805.55M762.729 269.772V312.593M762.729 269.772H805.55M762.729 312.593V355.414M762.729 312.593H805.55M762.729 355.414V398.235M762.729 355.414H805.55M762.729 398.235V441.056M762.729 398.235H805.55M762.729 441.056V483.877M762.729 441.056H805.55M762.729 483.877V526.698M762.729 483.877H805.55M762.729 526.698V569.519M762.729 526.698H805.55M762.729 569.519V612.34M762.729 569.519H805.55M762.729 612.34V655.161M762.729 612.34H805.55M762.729 655.161V697.982M762.729 655.161H805.55M762.729 697.982V740.803M762.729 697.982H805.55M762.729 740.803V783.624M762.729 740.803H805.55M762.729 783.624V826.445M762.729 783.624H805.55M762.729 826.445V869.266M762.729 826.445H805.55M762.729 869.266H805.55M805.55 12.8462V55.6672M805.55 12.8462H848.371M805.55 55.6672V98.4881M805.55 55.6672H848.371M805.55 98.4881V141.309M805.55 98.4881H848.371M805.55 141.309V184.13M805.55 141.309H848.371M805.55 184.13V226.951M805.55 184.13H848.371M805.55 226.951V269.772M805.55 226.951H848.371M805.55 269.772V312.593M805.55 269.772H848.371M805.55 312.593V355.414M805.55 312.593H848.371M805.55 355.414V398.235M805.55 355.414H848.371M805.55 398.235V441.056M805.55 398.235H848.371M805.55 441.056V483.877M805.55 441.056H848.371M805.55 483.877V526.698M805.55 483.877H848.371M805.55 526.698V569.519M805.55 526.698H848.371M805.55 569.519V612.34M805.55 569.519H848.371M805.55 612.34V655.161M805.55 612.34H848.371M805.55 655.161V697.982M805.55 655.161H848.371M805.55 697.982V740.803M805.55 697.982H848.371M805.55 740.803V783.624M805.55 740.803H848.371M805.55 783.624V826.445M805.55 783.624H848.371M805.55 826.445V869.266M805.55 826.445H848.371M805.55 869.266H848.371M848.371 12.8462V55.6672M848.371 12.8462H891.192M848.371 55.6672V98.4881M848.371 55.6672H891.192M848.371 98.4881V141.309M848.371 98.4881H891.192M848.371 141.309V184.13M848.371 141.309H891.192M848.371 184.13V226.951M848.371 184.13H891.192M848.371 226.951V269.772M848.371 226.951H891.192M848.371 269.772V312.593M848.371 269.772H891.192M848.371 312.593V355.414M848.371 312.593H891.192M848.371 355.414V398.235M848.371 355.414H891.192M848.371 398.235V441.056M848.371 398.235H891.192M848.371 441.056V483.877M848.371 441.056H891.192M848.371 483.877V526.698M848.371 483.877H891.192M848.371 526.698V569.519M848.371 526.698H891.192M848.371 569.519V612.34M848.371 569.519H891.192M848.371 612.34V655.161M848.371 612.34H891.192M848.371 655.161V697.982M848.371 655.161H891.192M848.371 697.982V740.803M848.371 697.982H891.192M848.371 740.803V783.624M848.371 740.803H891.192M848.371 783.624V826.445M848.371 783.624H891.192M848.371 826.445V869.266M848.371 826.445H891.192M848.371 869.266H891.192M891.192 12.8462V55.6672M891.192 12.8462H934.013M891.192 55.6672V98.4881M891.192 55.6672H934.013M891.192 98.4881V141.309M891.192 98.4881H934.013M891.192 141.309V184.13M891.192 141.309H934.013M891.192 184.13V226.951M891.192 184.13H934.013M891.192 226.951V269.772M891.192 226.951H934.013M891.192 269.772V312.593M891.192 269.772H934.013M891.192 312.593V355.414M891.192 312.593H934.013M891.192 355.414V398.235M891.192 355.414H934.013M891.192 398.235V441.056M891.192 398.235H934.013M891.192 441.056V483.877M891.192 441.056H934.013M891.192 483.877V526.698M891.192 483.877H934.013M891.192 526.698V569.519M891.192 526.698H934.013M891.192 569.519V612.34M891.192 569.519H934.013M891.192 612.34V655.161M891.192 612.34H934.013M891.192 655.161V697.982M891.192 655.161H934.013M891.192 697.982V740.803M891.192 697.982H934.013M891.192 740.803V783.624M891.192 740.803H934.013M891.192 783.624V826.445M891.192 783.624H934.013M891.192 826.445V869.266M891.192 826.445H934.013M891.192 869.266H934.013M934.013 12.8462V55.6672M934.013 12.8462H976.834M934.013 55.6672V98.4881M934.013 55.6672H976.834M934.013 98.4881V141.309M934.013 98.4881H976.834M934.013 141.309V184.13M934.013 141.309H976.834M934.013 184.13V226.951M934.013 184.13H976.834M934.013 226.951V269.772M934.013 226.951H976.834M934.013 269.772V312.593M934.013 269.772H976.834M934.013 312.593V355.414M934.013 312.593H976.834M934.013 355.414V398.235M934.013 355.414H976.834M934.013 398.235V441.056M934.013 398.235H976.834M934.013 441.056V483.877M934.013 441.056H976.834M934.013 483.877V526.698M934.013 483.877H976.834M934.013 526.698V569.519M934.013 526.698H976.834M934.013 569.519V612.34M934.013 569.519H976.834M934.013 612.34V655.161M934.013 612.34H976.834M934.013 655.161V697.982M934.013 655.161H976.834M934.013 697.982V740.803M934.013 697.982H976.834M934.013 740.803V783.624M934.013 740.803H976.834M934.013 783.624V826.445M934.013 783.624H976.834M934.013 826.445V869.266M934.013 826.445H976.834M934.013 869.266H976.834M976.834 12.8462V55.6672M976.834 12.8462H1019.66M976.834 55.6672V98.4881M976.834 55.6672H1019.66M976.834 98.4881V141.309M976.834 98.4881H1019.66M976.834 141.309V184.13M976.834 141.309H1019.66M976.834 184.13V226.951M976.834 184.13H1019.66M976.834 226.951V269.772M976.834 226.951H1019.66M976.834 269.772V312.593M976.834 269.772H1019.66M976.834 312.593V355.414M976.834 312.593H1019.66M976.834 355.414V398.235M976.834 355.414H1019.66M976.834 398.235V441.056M976.834 398.235H1019.66M976.834 441.056V483.877M976.834 441.056H1019.66M976.834 483.877V526.698M976.834 483.877H1019.66M976.834 526.698V569.519M976.834 526.698H1019.66M976.834 569.519V612.34M976.834 569.519H1019.66M976.834 612.34V655.161M976.834 612.34H1019.66M976.834 655.161V697.982M976.834 655.161H1019.66M976.834 697.982V740.803M976.834 697.982H1019.66M976.834 740.803V783.624M976.834 740.803H1019.66M976.834 783.624V826.445M976.834 783.624H1019.66M976.834 826.445V869.266M976.834 826.445H1019.66M976.834 869.266H1019.66M1019.66 12.8462V55.6672M1019.66 12.8462H1062.48M1019.66 55.6672V98.4881M1019.66 55.6672H1062.48M1019.66 98.4881V141.309M1019.66 98.4881H1062.48M1019.66 141.309V184.13M1019.66 141.309H1062.48M1019.66 184.13V226.951M1019.66 184.13H1062.48M1019.66 226.951V269.772M1019.66 226.951H1062.48M1019.66 269.772V312.593M1019.66 269.772H1062.48M1019.66 312.593V355.414M1019.66 312.593H1062.48M1019.66 355.414V398.235M1019.66 355.414H1062.48M1019.66 398.235V441.056M1019.66 398.235H1062.48M1019.66 441.056V483.877M1019.66 441.056H1062.48M1019.66 483.877V526.698M1019.66 483.877H1062.48M1019.66 526.698V569.519M1019.66 526.698H1062.48M1019.66 569.519V612.34M1019.66 569.519H1062.48M1019.66 612.34V655.161M1019.66 612.34H1062.48M1019.66 655.161V697.982M1019.66 655.161H1062.48M1019.66 697.982V740.803M1019.66 697.982H1062.48M1019.66 740.803V783.624M1019.66 740.803H1062.48M1019.66 783.624V826.445M1019.66 783.624H1062.48M1019.66 826.445V869.266M1019.66 826.445H1062.48M1019.66 869.266H1062.48M1062.48 12.8462V55.6672M1062.48 12.8462H1105.3M1062.48 55.6672V98.4881M1062.48 55.6672H1105.3M1062.48 98.4881V141.309M1062.48 98.4881H1105.3M1062.48 141.309V184.13M1062.48 141.309H1105.3M1062.48 184.13V226.951M1062.48 184.13H1105.3M1062.48 226.951V269.772M1062.48 226.951H1105.3M1062.48 269.772V312.593M1062.48 269.772H1105.3M1062.48 312.593V355.414M1062.48 312.593H1105.3M1062.48 355.414V398.235M1062.48 355.414H1105.3M1062.48 398.235V441.056M1062.48 398.235H1105.3M1062.48 441.056V483.877M1062.48 441.056H1105.3M1062.48 483.877V526.698M1062.48 483.877H1105.3M1062.48 526.698V569.519M1062.48 526.698H1105.3M1062.48 569.519V612.34M1062.48 569.519H1105.3M1062.48 612.34V655.161M1062.48 612.34H1105.3M1062.48 655.161V697.982M1062.48 655.161H1105.3M1062.48 697.982V740.803M1062.48 697.982H1105.3M1062.48 740.803V783.624M1062.48 740.803H1105.3M1062.48 783.624V826.445M1062.48 783.624H1105.3M1062.48 826.445V869.266M1062.48 826.445H1105.3M1062.48 869.266H1105.3M1105.3 12.8462V55.6672M1105.3 12.8462H1148.12M1105.3 55.6672V98.4881M1105.3 55.6672H1148.12M1105.3 98.4881V141.309M1105.3 98.4881H1148.12M1105.3 141.309V184.13M1105.3 141.309H1148.12M1105.3 184.13V226.951M1105.3 184.13H1148.12M1105.3 226.951V269.772M1105.3 226.951H1148.12M1105.3 269.772V312.593M1105.3 269.772H1148.12M1105.3 312.593V355.414M1105.3 312.593H1148.12M1105.3 355.414V398.235M1105.3 355.414H1148.12M1105.3 398.235V441.056M1105.3 398.235H1148.12M1105.3 441.056V483.877M1105.3 441.056H1148.12M1105.3 483.877V526.698M1105.3 483.877H1148.12M1105.3 526.698V569.519M1105.3 526.698H1148.12M1105.3 569.519V612.34M1105.3 569.519H1148.12M1105.3 612.34V655.161M1105.3 612.34H1148.12M1105.3 655.161V697.982M1105.3 655.161H1148.12M1105.3 697.982V740.803M1105.3 697.982H1148.12M1105.3 740.803V783.624M1105.3 740.803H1148.12M1105.3 783.624V826.445M1105.3 783.624H1148.12M1105.3 826.445V869.266M1105.3 826.445H1148.12M1105.3 869.266H1148.12M1148.12 12.8462V55.6672M1148.12 12.8462H1190.94M1148.12 55.6672V98.4881M1148.12 55.6672H1190.94M1148.12 98.4881V141.309M1148.12 98.4881H1190.94M1148.12 141.309V184.13M1148.12 141.309H1190.94M1148.12 184.13V226.951M1148.12 184.13H1190.94M1148.12 226.951V269.772M1148.12 226.951H1190.94M1148.12 269.772V312.593M1148.12 269.772H1190.94M1148.12 312.593V355.414M1148.12 312.593H1190.94M1148.12 355.414V398.235M1148.12 355.414H1190.94M1148.12 398.235V441.056M1148.12 398.235H1190.94M1148.12 441.056V483.877M1148.12 441.056H1190.94M1148.12 483.877V526.698M1148.12 483.877H1190.94M1148.12 526.698V569.519M1148.12 526.698H1190.94M1148.12 569.519V612.34M1148.12 569.519H1190.94M1148.12 612.34V655.161M1148.12 612.34H1190.94M1148.12 655.161V697.982M1148.12 655.161H1190.94M1148.12 697.982V740.803M1148.12 697.982H1190.94M1148.12 740.803V783.624M1148.12 740.803H1190.94M1148.12 783.624V826.445M1148.12 783.624H1190.94M1148.12 826.445V869.266M1148.12 826.445H1190.94M1148.12 869.266H1190.94M1190.94 12.8462V55.6672M1190.94 12.8462H1233.76M1190.94 55.6672V98.4881M1190.94 55.6672H1233.76M1190.94 98.4881V141.309M1190.94 98.4881H1233.76M1190.94 141.309V184.13M1190.94 141.309H1233.76M1190.94 184.13V226.951M1190.94 184.13H1233.76M1190.94 226.951V269.772M1190.94 226.951H1233.76M1190.94 269.772V312.593M1190.94 269.772H1233.76M1190.94 312.593V355.414M1190.94 312.593H1233.76M1190.94 355.414V398.235M1190.94 355.414H1233.76M1190.94 398.235V441.056M1190.94 398.235H1233.76M1190.94 441.056V483.877M1190.94 441.056H1233.76M1190.94 483.877V526.698M1190.94 483.877H1233.76M1190.94 526.698V569.519M1190.94 526.698H1233.76M1190.94 569.519V612.34M1190.94 569.519H1233.76M1190.94 612.34V655.161M1190.94 612.34H1233.76M1190.94 655.161V697.982M1190.94 655.161H1233.76M1190.94 697.982V740.803M1190.94 697.982H1233.76M1190.94 740.803V783.624M1190.94 740.803H1233.76M1190.94 783.624V826.445M1190.94 783.624H1233.76M1190.94 826.445V869.266M1190.94 826.445H1233.76M1190.94 869.266H1233.76M1233.76 12.8462V55.6672M1233.76 12.8462H1276.58M1233.76 55.6672V98.4881M1233.76 55.6672H1276.58M1233.76 98.4881V141.309M1233.76 98.4881H1276.58M1233.76 141.309V184.13M1233.76 141.309H1276.58M1233.76 184.13V226.951M1233.76 184.13H1276.58M1233.76 226.951V269.772M1233.76 226.951H1276.58M1233.76 269.772V312.593M1233.76 269.772H1276.58M1233.76 312.593V355.414M1233.76 312.593H1276.58M1233.76 355.414V398.235M1233.76 355.414H1276.58M1233.76 398.235V441.056M1233.76 398.235H1276.58M1233.76 441.056V483.877M1233.76 441.056H1276.58M1233.76 483.877V526.698M1233.76 483.877H1276.58M1233.76 526.698V569.519M1233.76 526.698H1276.58M1233.76 569.519V612.34M1233.76 569.519H1276.58M1233.76 612.34V655.161M1233.76 612.34H1276.58M1233.76 655.161V697.982M1233.76 655.161H1276.58M1233.76 697.982V740.803M1233.76 697.982H1276.58M1233.76 740.803V783.624M1233.76 740.803H1276.58M1233.76 783.624V826.445M1233.76 783.624H1276.58M1233.76 826.445V869.266M1233.76 826.445H1276.58M1233.76 869.266H1276.58M1276.58 12.8462V55.6672M1276.58 12.8462H1319.4M1276.58 55.6672V98.4881M1276.58 55.6672H1319.4M1276.58 98.4881V141.309M1276.58 98.4881H1319.4M1276.58 141.309V184.13M1276.58 141.309H1319.4M1276.58 184.13V226.951M1276.58 184.13H1319.4M1276.58 226.951V269.772M1276.58 226.951H1319.4M1276.58 269.772V312.593M1276.58 269.772H1319.4M1276.58 312.593V355.414M1276.58 312.593H1319.4M1276.58 355.414V398.235M1276.58 355.414H1319.4M1276.58 398.235V441.056M1276.58 398.235H1319.4M1276.58 441.056V483.877M1276.58 441.056H1319.4M1276.58 483.877V526.698M1276.58 483.877H1319.4M1276.58 526.698V569.519M1276.58 526.698H1319.4M1276.58 569.519V612.34M1276.58 569.519H1319.4M1276.58 612.34V655.161M1276.58 612.34H1319.4M1276.58 655.161V697.982M1276.58 655.161H1319.4M1276.58 697.982V740.803M1276.58 697.982H1319.4M1276.58 740.803V783.624M1276.58 740.803H1319.4M1276.58 783.624V826.445M1276.58 783.624H1319.4M1276.58 826.445V869.266M1276.58 826.445H1319.4M1276.58 869.266H1319.4M1319.4 12.8462V55.6672M1319.4 12.8462H1362.22M1319.4 55.6672V98.4881M1319.4 55.6672H1362.22M1319.4 98.4881V141.309M1319.4 98.4881H1362.22M1319.4 141.309V184.13M1319.4 141.309H1362.22M1319.4 184.13V226.951M1319.4 184.13H1362.22M1319.4 226.951V269.772M1319.4 226.951H1362.22M1319.4 269.772V312.593M1319.4 269.772H1362.22M1319.4 312.593V355.414M1319.4 312.593H1362.22M1319.4 355.414V398.235M1319.4 355.414H1362.22M1319.4 398.235V441.056M1319.4 398.235H1362.22M1319.4 441.056V483.877M1319.4 441.056H1362.22M1319.4 483.877V526.698M1319.4 483.877H1362.22M1319.4 526.698V569.519M1319.4 526.698H1362.22M1319.4 569.519V612.34M1319.4 569.519H1362.22M1319.4 612.34V655.161M1319.4 612.34H1362.22M1319.4 655.161V697.982M1319.4 655.161H1362.22M1319.4 697.982V740.803M1319.4 697.982H1362.22M1319.4 740.803V783.624M1319.4 740.803H1362.22M1319.4 783.624V826.445M1319.4 783.624H1362.22M1319.4 826.445V869.266M1319.4 826.445H1362.22M1319.4 869.266H1362.22M1362.22 12.8462V55.6672M1362.22 12.8462H1405.04M1362.22 55.6672V98.4881M1362.22 55.6672H1405.04M1362.22 98.4881V141.309M1362.22 98.4881H1405.04M1362.22 141.309V184.13M1362.22 141.309H1405.04M1362.22 184.13V226.951M1362.22 184.13H1405.04M1362.22 226.951V269.772M1362.22 226.951H1405.04M1362.22 269.772V312.593M1362.22 269.772H1405.04M1362.22 312.593V355.414M1362.22 312.593H1405.04M1362.22 355.414V398.235M1362.22 355.414H1405.04M1362.22 398.235V441.056M1362.22 398.235H1405.04M1362.22 441.056V483.877M1362.22 441.056H1405.04M1362.22 483.877V526.698M1362.22 483.877H1405.04M1362.22 526.698V569.519M1362.22 526.698H1405.04M1362.22 569.519V612.34M1362.22 569.519H1405.04M1362.22 612.34V655.161M1362.22 612.34H1405.04M1362.22 655.161V697.982M1362.22 655.161H1405.04M1362.22 697.982V740.803M1362.22 697.982H1405.04M1362.22 740.803V783.624M1362.22 740.803H1405.04M1362.22 783.624V826.445M1362.22 783.624H1405.04M1362.22 826.445V869.266M1362.22 826.445H1405.04M1362.22 869.266H1405.04M1405.04 12.8462V55.6672M1405.04 12.8462H1447.86M1405.04 55.6672V98.4881M1405.04 55.6672H1447.86M1405.04 98.4881V141.309M1405.04 98.4881H1447.86M1405.04 141.309V184.13M1405.04 141.309H1447.86M1405.04 184.13V226.951M1405.04 184.13H1447.86M1405.04 226.951V269.772M1405.04 226.951H1447.86M1405.04 269.772V312.593M1405.04 269.772H1447.86M1405.04 312.593V355.414M1405.04 312.593H1447.86M1405.04 355.414V398.235M1405.04 355.414H1447.86M1405.04 398.235V441.056M1405.04 398.235H1447.86M1405.04 441.056V483.877M1405.04 441.056H1447.86M1405.04 483.877V526.698M1405.04 483.877H1447.86M1405.04 526.698V569.519M1405.04 526.698H1447.86M1405.04 569.519V612.34M1405.04 569.519H1447.86M1405.04 612.34V655.161M1405.04 612.34H1447.86M1405.04 655.161V697.982M1405.04 655.161H1447.86M1405.04 697.982V740.803M1405.04 697.982H1447.86M1405.04 740.803V783.624M1405.04 740.803H1447.86M1405.04 783.624V826.445M1405.04 783.624H1447.86M1405.04 826.445V869.266M1405.04 826.445H1447.86M1405.04 869.266H1447.86M1447.86 12.8462V55.6672M1447.86 12.8462H1490.69M1447.86 55.6672V98.4881M1447.86 55.6672H1490.69M1447.86 98.4881V141.309M1447.86 98.4881H1490.69M1447.86 141.309V184.13M1447.86 141.309H1490.69M1447.86 184.13V226.951M1447.86 184.13H1490.69M1447.86 226.951V269.772M1447.86 226.951H1490.69M1447.86 269.772V312.593M1447.86 269.772H1490.69M1447.86 312.593V355.414M1447.86 312.593H1490.69M1447.86 355.414V398.235M1447.86 355.414H1490.69M1447.86 398.235V441.056M1447.86 398.235H1490.69M1447.86 441.056V483.877M1447.86 441.056H1490.69M1447.86 483.877V526.698M1447.86 483.877H1490.69M1447.86 526.698V569.519M1447.86 526.698H1490.69M1447.86 569.519V612.34M1447.86 569.519H1490.69M1447.86 612.34V655.161M1447.86 612.34H1490.69M1447.86 655.161V697.982M1447.86 655.161H1490.69M1447.86 697.982V740.803M1447.86 697.982H1490.69M1447.86 740.803V783.624M1447.86 740.803H1490.69M1447.86 783.624V826.445M1447.86 783.624H1490.69M1447.86 826.445V869.266M1447.86 826.445H1490.69M1447.86 869.266H1490.69M1490.69 12.8462V55.6672M1490.69 12.8462H1533.51M1490.69 55.6672V98.4881M1490.69 55.6672H1533.51M1490.69 98.4881V141.309M1490.69 98.4881H1533.51M1490.69 141.309V184.13M1490.69 141.309H1533.51M1490.69 184.13V226.951M1490.69 184.13H1533.51M1490.69 226.951V269.772M1490.69 226.951H1533.51M1490.69 269.772V312.593M1490.69 269.772H1533.51M1490.69 312.593V355.414M1490.69 312.593H1533.51M1490.69 355.414V398.235M1490.69 355.414H1533.51M1490.69 398.235V441.056M1490.69 398.235H1533.51M1490.69 441.056V483.877M1490.69 441.056H1533.51M1490.69 483.877V526.698M1490.69 483.877H1533.51M1490.69 526.698V569.519M1490.69 526.698H1533.51M1490.69 569.519V612.34M1490.69 569.519H1533.51M1490.69 612.34V655.161M1490.69 612.34H1533.51M1490.69 655.161V697.982M1490.69 655.161H1533.51M1490.69 697.982V740.803M1490.69 697.982H1533.51M1490.69 740.803V783.624M1490.69 740.803H1533.51M1490.69 783.624V826.445M1490.69 783.624H1533.51M1490.69 826.445V869.266M1490.69 826.445H1533.51M1490.69 869.266H1533.51M1533.51 12.8462V55.6672M1533.51 12.8462H1576.33M1533.51 55.6672V98.4881M1533.51 55.6672H1576.33M1533.51 98.4881V141.309M1533.51 98.4881H1576.33M1533.51 141.309V184.13M1533.51 141.309H1576.33M1533.51 184.13V226.951M1533.51 184.13H1576.33M1533.51 226.951V269.772M1533.51 226.951H1576.33M1533.51 269.772V312.593M1533.51 269.772H1576.33M1533.51 312.593V355.414M1533.51 312.593H1576.33M1533.51 355.414V398.235M1533.51 355.414H1576.33M1533.51 398.235V441.056M1533.51 398.235H1576.33M1533.51 441.056V483.877M1533.51 441.056H1576.33M1533.51 483.877V526.698M1533.51 483.877H1576.33M1533.51 526.698V569.519M1533.51 526.698H1576.33M1533.51 569.519V612.34M1533.51 569.519H1576.33M1533.51 612.34V655.161M1533.51 612.34H1576.33M1533.51 655.161V697.982M1533.51 655.161H1576.33M1533.51 697.982V740.803M1533.51 697.982H1576.33M1533.51 740.803V783.624M1533.51 740.803H1576.33M1533.51 783.624V826.445M1533.51 783.624H1576.33M1533.51 826.445V869.266M1533.51 826.445H1576.33M1533.51 869.266H1576.33M1576.33 12.8462V55.6672M1576.33 12.8462H1619.15M1576.33 55.6672V98.4881M1576.33 55.6672H1619.15M1576.33 98.4881V141.309M1576.33 98.4881H1619.15M1576.33 141.309V184.13M1576.33 141.309H1619.15M1576.33 184.13V226.951M1576.33 184.13H1619.15M1576.33 226.951V269.772M1576.33 226.951H1619.15M1576.33 269.772V312.593M1576.33 269.772H1619.15M1576.33 312.593V355.414M1576.33 312.593H1619.15M1576.33 355.414V398.235M1576.33 355.414H1619.15M1576.33 398.235V441.056M1576.33 398.235H1619.15M1576.33 441.056V483.877M1576.33 441.056H1619.15M1576.33 483.877V526.698M1576.33 483.877H1619.15M1576.33 526.698V569.519M1576.33 526.698H1619.15M1576.33 569.519V612.34M1576.33 569.519H1619.15M1576.33 612.34V655.161M1576.33 612.34H1619.15M1576.33 655.161V697.982M1576.33 655.161H1619.15M1576.33 697.982V740.803M1576.33 697.982H1619.15M1576.33 740.803V783.624M1576.33 740.803H1619.15M1576.33 783.624V826.445M1576.33 783.624H1619.15M1576.33 826.445V869.266M1576.33 826.445H1619.15M1576.33 869.266H1619.15M1619.15 12.8462V55.6672M1619.15 12.8462H1661.97V55.6672M1619.15 55.6672V98.4881M1619.15 55.6672H1661.97M1619.15 98.4881V141.309M1619.15 98.4881H1661.97M1619.15 141.309V184.13M1619.15 141.309H1661.97M1619.15 184.13V226.951M1619.15 184.13H1661.97M1619.15 226.951V269.772M1619.15 226.951H1661.97M1619.15 269.772V312.593M1619.15 269.772H1661.97M1619.15 312.593V355.414M1619.15 312.593H1661.97M1619.15 355.414V398.235M1619.15 355.414H1661.97M1619.15 398.235V441.056M1619.15 398.235H1661.97M1619.15 441.056V483.877M1619.15 441.056H1661.97M1619.15 483.877V526.698M1619.15 483.877H1661.97M1619.15 526.698V569.519M1619.15 526.698H1661.97M1619.15 569.519V612.34M1619.15 569.519H1661.97M1619.15 612.34V655.161M1619.15 612.34H1661.97M1619.15 655.161V697.982M1619.15 655.161H1661.97M1619.15 697.982V740.803M1619.15 697.982H1661.97M1619.15 740.803V783.624M1619.15 740.803H1661.97M1619.15 783.624V826.445M1619.15 783.624H1661.97M1619.15 826.445V869.266M1619.15 826.445H1661.97M1619.15 869.266H1661.97V826.445M1661.97 55.6672V98.4881M1661.97 98.4881V141.309M1661.97 141.309V184.13M1661.97 184.13V226.951M1661.97 226.951V269.772M1661.97 269.772V312.593M1661.97 312.593V355.414M1661.97 355.414V398.235M1661.97 398.235V441.056M1661.97 441.056V483.877M1661.97 483.877V526.698M1661.97 526.698V569.519M1661.97 569.519V612.34M1661.97 612.34V655.161M1661.97 655.161V697.982M1661.97 697.982V740.803M1661.97 740.803V783.624M1661.97 783.624V826.445" stroke="url(#paint0_radial_1_82)" stroke-opacity="0.6" stroke-width="0.805493"/>
</g>
<g style="mix-blend-mode:soft-light" opacity="0.8">
<path d="M-50.8698 171.284V184.13M-50.8698 184.13V196.976M-50.8698 184.13H-63.7161M-50.8698 184.13H-38.0235M-50.8698 513.852V526.698M-50.8698 526.698V539.544M-50.8698 526.698H-63.7161M-50.8698 526.698H-38.0235M-50.8698 856.419V869.266M-50.8698 869.266V882.112M-50.8698 869.266H-63.7161M-50.8698 869.266H-38.0235M291.698 171.284V184.13M291.698 184.13V196.976M291.698 184.13H278.852M291.698 184.13H304.544M291.698 513.852V526.698M291.698 526.698V539.544M291.698 526.698H278.852M291.698 526.698H304.544M291.698 856.419V869.266M291.698 869.266V882.112M291.698 869.266H278.852M291.698 869.266H304.544M634.266 171.284V184.13M634.266 184.13V196.976M634.266 184.13H621.42M634.266 184.13H647.112M634.266 513.852V526.698M634.266 526.698V539.544M634.266 526.698H621.42M634.266 526.698H647.112M634.266 856.419V869.266M634.266 869.266V882.112M634.266 869.266H621.42M634.266 869.266H647.112M976.834 171.284V184.13M976.834 184.13V196.976M976.834 184.13H963.988M976.834 184.13H989.68M976.834 513.852V526.698M976.834 526.698V539.544M976.834 526.698H963.988M976.834 526.698H989.68M976.834 856.419V869.266M976.834 869.266V882.112M976.834 869.266H963.988M976.834 869.266H989.68M1319.4 171.284V184.13M1319.4 184.13V196.976M1319.4 184.13H1306.56M1319.4 184.13H1332.25M1319.4 513.852V526.698M1319.4 526.698V539.544M1319.4 526.698H1306.56M1319.4 526.698H1332.25M1319.4 856.419V869.266M1319.4 869.266V882.112M1319.4 869.266H1306.56M1319.4 869.266H1332.25M1661.97 171.284V184.13M1661.97 184.13V196.976M1661.97 184.13H1649.12M1661.97 184.13H1674.82M1661.97 513.852V526.698M1661.97 526.698V539.544M1661.97 526.698H1649.12M1661.97 526.698H1674.82M1661.97 856.419V869.266M1661.97 869.266V882.112M1661.97 869.266H1649.12M1661.97 869.266H1674.82M-50.8698 0V12.8463M-50.8698 12.8463V25.6926M-50.8698 12.8463H-63.7161M-50.8698 12.8463H-38.0235M-50.8698 342.568V355.414M-50.8698 355.414V368.26M-50.8698 355.414H-63.7161M-50.8698 355.414H-38.0235M-50.8698 685.135V697.982M-50.8698 697.982V710.828M-50.8698 697.982H-63.7161M-50.8698 697.982H-38.0235M291.698 0V12.8463M291.698 12.8463V25.6926M291.698 12.8463H278.852M291.698 12.8463H304.544M291.698 342.568V355.414M291.698 355.414V368.26M291.698 355.414H278.852M291.698 355.414H304.544M291.698 685.135V697.982M291.698 697.982V710.828M291.698 697.982H278.852M291.698 697.982H304.544M634.266 0V12.8463M634.266 12.8463V25.6926M634.266 12.8463H621.42M634.266 12.8463H647.112M634.266 342.568V355.414M634.266 355.414V368.26M634.266 355.414H621.42M634.266 355.414H647.112M634.266 685.135V697.982M634.266 697.982V710.828M634.266 697.982H621.42M634.266 697.982H647.112M976.834 0V12.8463M976.834 12.8463V25.6926M976.834 12.8463H963.988M976.834 12.8463H989.68M976.834 342.568V355.414M976.834 355.414V368.26M976.834 355.414H963.988M976.834 355.414H989.68M976.834 685.135V697.982M976.834 697.982V710.828M976.834 697.982H963.988M976.834 697.982H989.68M1319.4 0V12.8463M1319.4 12.8463V25.6926M1319.4 12.8463H1306.56M1319.4 12.8463H1332.25M1319.4 342.568V355.414M1319.4 355.414V368.26M1319.4 355.414H1306.56M1319.4 355.414H1332.25M1319.4 685.135V697.982M1319.4 697.982V710.828M1319.4 697.982H1306.56M1319.4 697.982H1332.25M1661.97 0V12.8463M1661.97 12.8463V25.6926M1661.97 12.8463H1649.12M1661.97 12.8463H1674.82M1661.97 342.568V355.414M1661.97 355.414V368.26M1661.97 355.414H1649.12M1661.97 355.414H1674.82M1661.97 685.135V697.982M1661.97 697.982V710.828M1661.97 697.982H1649.12M1661.97 697.982H1674.82M-222.154 171.284V184.13M-222.154 184.13V196.976M-222.154 184.13H-235M-222.154 184.13H-209.307M-222.154 513.852V526.698M-222.154 526.698V539.544M-222.154 526.698H-235M-222.154 526.698H-209.307M-222.154 856.419V869.266M-222.154 869.266V882.112M-222.154 869.266H-235M-222.154 869.266H-209.307M120.414 171.284V184.13M120.414 184.13V196.976M120.414 184.13H107.568M120.414 184.13H133.26M120.414 513.852V526.698M120.414 526.698V539.544M120.414 526.698H107.568M120.414 526.698H133.26M120.414 856.419V869.266M120.414 869.266V882.112M120.414 869.266H107.568M120.414 869.266H133.26M462.982 171.284V184.13M462.982 184.13V196.976M462.982 184.13H450.136M462.982 184.13H475.828M462.982 513.852V526.698M462.982 526.698V539.544M462.982 526.698H450.136M462.982 526.698H475.828M462.982 856.419V869.266M462.982 869.266V882.112M462.982 869.266H450.136M462.982 869.266H475.828M805.55 171.284V184.13M805.55 184.13V196.976M805.55 184.13H792.704M805.55 184.13H818.396M805.55 513.852V526.698M805.55 526.698V539.544M805.55 526.698H792.704M805.55 526.698H818.396M805.55 856.419V869.266M805.55 869.266V882.112M805.55 869.266H792.704M805.55 869.266H818.396M1148.12 171.284V184.13M1148.12 184.13V196.976M1148.12 184.13H1135.27M1148.12 184.13H1160.96M1148.12 513.852V526.698M1148.12 526.698V539.544M1148.12 526.698H1135.27M1148.12 526.698H1160.96M1148.12 856.419V869.266M1148.12 869.266V882.112M1148.12 869.266H1135.27M1148.12 869.266H1160.96M1490.69 171.284V184.13M1490.69 184.13V196.976M1490.69 184.13H1477.84M1490.69 184.13H1503.53M1490.69 513.852V526.698M1490.69 526.698V539.544M1490.69 526.698H1477.84M1490.69 526.698H1503.53M1490.69 856.419V869.266M1490.69 869.266V882.112M1490.69 869.266H1477.84M1490.69 869.266H1503.53M-222.154 6.31525e-05V12.8464M-222.154 12.8464V25.6927M-222.154 12.8464H-235M-222.154 12.8464H-209.307M-222.154 342.568V355.414M-222.154 355.414V368.26M-222.154 355.414H-235M-222.154 355.414H-209.307M-222.154 685.135V697.982M-222.154 697.982V710.828M-222.154 697.982H-235M-222.154 697.982H-209.307M120.414 0V12.8463M120.414 12.8463V25.6926M120.414 12.8463H107.568M120.414 12.8463H133.26M120.414 342.568V355.414M120.414 355.414V368.26M120.414 355.414H107.568M120.414 355.414H133.26M120.414 685.135V697.982M120.414 697.982V710.828M120.414 697.982H107.568M120.414 697.982H133.26M462.982 0V12.8463M462.982 12.8463V25.6926M462.982 12.8463H450.136M462.982 12.8463H475.828M462.982 342.568V355.414M462.982 355.414V368.26M462.982 355.414H450.136M462.982 355.414H475.828M462.982 685.135V697.982M462.982 697.982V710.828M462.982 697.982H450.136M462.982 697.982H475.828M805.55 0V12.8463M805.55 12.8463V25.6926M805.55 12.8463H792.704M805.55 12.8463H818.396M805.55 342.568V355.414M805.55 355.414V368.26M805.55 355.414H792.704M805.55 355.414H818.396M805.55 685.135V697.982M805.55 697.982V710.828M805.55 697.982H792.704M805.55 697.982H818.396M1148.12 0V12.8463M1148.12 12.8463V25.6926M1148.12 12.8463H1135.27M1148.12 12.8463H1160.96M1148.12 342.568V355.414M1148.12 355.414V368.26M1148.12 355.414H1135.27M1148.12 355.414H1160.96M1148.12 685.135V697.982M1148.12 697.982V710.828M1148.12 697.982H1135.27M1148.12 697.982H1160.96M1490.69 0V12.8463M1490.69 12.8463V25.6926M1490.69 12.8463H1477.84M1490.69 12.8463H1503.53M1490.69 342.568V355.414M1490.69 355.414V368.26M1490.69 355.414H1477.84M1490.69 355.414H1503.53M1490.69 685.135V697.982M1490.69 697.982V710.828M1490.69 697.982H1477.84M1490.69 697.982H1503.53" stroke="url(#paint1_radial_1_82)" stroke-opacity="0.6" stroke-width="1.61099"/>
</g>
</g>
<defs>
<radialGradient id="paint0_radial_1_82" cx="0" cy="0" r="1" gradientUnits="userSpaceOnUse" gradientTransform="translate(719.908 441.056) rotate(90) scale(428.21 942.061)">
<stop stop-color="#9040FF"/>
<stop offset="1" stop-color="white" stop-opacity="0.33"/>
</radialGradient>
<radialGradient id="paint1_radial_1_82" cx="0" cy="0" r="1" gradientUnits="userSpaceOnUse" gradientTransform="translate(719.908 441.056) rotate(90) scale(441.056 954.908)">
<stop stop-color="#9040FF"/>
<stop offset="1" stop-color="white" stop-opacity="0.33"/>
</radialGradient>
<clipPath id="clip0_1_82">
<rect width="1440" height="399" fill="white"/>
</clipPath>
</defs>
</svg>
