<svg width="393" height="355" viewBox="0 0 393 355" fill="none" xmlns="http://www.w3.org/2000/svg">
<g clip-path="url(#clip0_7_35)">
<mask id="path-1-inside-1_7_35" fill="white">
<path d="M-439 0H842V355H-439V0Z"/>
</mask>
<g style="mix-blend-mode:soft-light" opacity="0.7">
<path d="M-618.332 12.8462H-661.153V55.6672M-618.332 12.8462V55.6672M-618.332 12.8462H-575.511M-618.332 55.6672H-661.153M-618.332 55.6672V98.4881M-618.332 55.6672H-575.511M-661.153 55.6672V98.4881M-618.332 98.4881H-661.153M-618.332 98.4881V141.309M-618.332 98.4881H-575.511M-661.153 98.4881V141.309M-618.332 141.309H-661.153M-618.332 141.309V184.13M-618.332 141.309H-575.511M-661.153 141.309V184.13M-618.332 184.13H-661.153M-618.332 184.13V226.951M-618.332 184.13H-575.511M-661.153 184.13V226.951M-618.332 226.951H-661.153M-618.332 226.951V269.772M-618.332 226.951H-575.511M-661.153 226.951V269.772M-618.332 269.772H-661.153M-618.332 269.772V312.593M-618.332 269.772H-575.511M-661.153 269.772V312.593M-618.332 312.593H-661.153M-618.332 312.593V355.414M-618.332 312.593H-575.511M-661.153 312.593V355.414M-618.332 355.414H-661.153M-618.332 355.414V398.235M-618.332 355.414H-575.511M-661.153 355.414V398.235M-618.332 398.235H-661.153M-618.332 398.235V441.056M-618.332 398.235H-575.511M-661.153 398.235V441.056M-618.332 441.056H-661.153M-618.332 441.056V483.877M-618.332 441.056H-575.511M-661.153 441.056V483.877M-618.332 483.877H-661.153M-618.332 483.877V526.698M-618.332 483.877H-575.511M-661.153 483.877V526.698M-618.332 526.698H-661.153M-618.332 526.698V569.519M-618.332 526.698H-575.511M-661.153 526.698V569.519M-618.332 569.519H-661.153M-618.332 569.519V612.34M-618.332 569.519H-575.511M-661.153 569.519V612.34M-618.332 612.34H-661.153M-618.332 612.34V655.161M-618.332 612.34H-575.511M-661.153 612.34V655.161M-618.332 655.161H-661.153M-618.332 655.161V697.982M-618.332 655.161H-575.511M-661.153 655.161V697.982M-618.332 697.982H-661.153M-618.332 697.982V740.803M-618.332 697.982H-575.511M-661.153 697.982V740.803M-618.332 740.803H-661.153M-618.332 740.803V783.624M-618.332 740.803H-575.511M-661.153 740.803V783.624M-618.332 783.624H-661.153M-618.332 783.624V826.445M-618.332 783.624H-575.511M-661.153 783.624V826.445M-618.332 826.445H-661.153M-618.332 826.445V869.266M-618.332 826.445H-575.511M-661.153 826.445V869.266H-618.332M-618.332 869.266H-575.511M-575.511 12.8462V55.6672M-575.511 12.8462H-532.69M-575.511 55.6672V98.4881M-575.511 55.6672H-532.69M-575.511 98.4881V141.309M-575.511 98.4881H-532.69M-575.511 141.309V184.13M-575.511 141.309H-532.69M-575.511 184.13V226.951M-575.511 184.13H-532.69M-575.511 226.951V269.772M-575.511 226.951H-532.69M-575.511 269.772V312.593M-575.511 269.772H-532.69M-575.511 312.593V355.414M-575.511 312.593H-532.69M-575.511 355.414V398.235M-575.511 355.414H-532.69M-575.511 398.235V441.056M-575.511 398.235H-532.69M-575.511 441.056V483.877M-575.511 441.056H-532.69M-575.511 483.877V526.698M-575.511 483.877H-532.69M-575.511 526.698V569.519M-575.511 526.698H-532.69M-575.511 569.519V612.34M-575.511 569.519H-532.69M-575.511 612.34V655.161M-575.511 612.34H-532.69M-575.511 655.161V697.982M-575.511 655.161H-532.69M-575.511 697.982V740.803M-575.511 697.982H-532.69M-575.511 740.803V783.624M-575.511 740.803H-532.69M-575.511 783.624V826.445M-575.511 783.624H-532.69M-575.511 826.445V869.266M-575.511 826.445H-532.69M-575.511 869.266H-532.69M-532.69 12.8462V55.6672M-532.69 12.8462H-489.869M-532.69 55.6672V98.4881M-532.69 55.6672H-489.869M-532.69 98.4881V141.309M-532.69 98.4881H-489.869M-532.69 141.309V184.13M-532.69 141.309H-489.869M-532.69 184.13V226.951M-532.69 184.13H-489.869M-532.69 226.951V269.772M-532.69 226.951H-489.869M-532.69 269.772V312.593M-532.69 269.772H-489.869M-532.69 312.593V355.414M-532.69 312.593H-489.869M-532.69 355.414V398.235M-532.69 355.414H-489.869M-532.69 398.235V441.056M-532.69 398.235H-489.869M-532.69 441.056V483.877M-532.69 441.056H-489.869M-532.69 483.877V526.698M-532.69 483.877H-489.869M-532.69 526.698V569.519M-532.69 526.698H-489.869M-532.69 569.519V612.34M-532.69 569.519H-489.869M-532.69 612.34V655.161M-532.69 612.34H-489.869M-532.69 655.161V697.982M-532.69 655.161H-489.869M-532.69 697.982V740.803M-532.69 697.982H-489.869M-532.69 740.803V783.624M-532.69 740.803H-489.869M-532.69 783.624V826.445M-532.69 783.624H-489.869M-532.69 826.445V869.266M-532.69 826.445H-489.869M-532.69 869.266H-489.869M-489.869 12.8462V55.6672M-489.869 12.8462H-447.048M-489.869 55.6672V98.4881M-489.869 55.6672H-447.048M-489.869 98.4881V141.309M-489.869 98.4881H-447.048M-489.869 141.309V184.13M-489.869 141.309H-447.048M-489.869 184.13V226.951M-489.869 184.13H-447.048M-489.869 226.951V269.772M-489.869 226.951H-447.048M-489.869 269.772V312.593M-489.869 269.772H-447.048M-489.869 312.593V355.414M-489.869 312.593H-447.048M-489.869 355.414V398.235M-489.869 355.414H-447.048M-489.869 398.235V441.056M-489.869 398.235H-447.048M-489.869 441.056V483.877M-489.869 441.056H-447.048M-489.869 483.877V526.698M-489.869 483.877H-447.048M-489.869 526.698V569.519M-489.869 526.698H-447.048M-489.869 569.519V612.34M-489.869 569.519H-447.048M-489.869 612.34V655.161M-489.869 612.34H-447.048M-489.869 655.161V697.982M-489.869 655.161H-447.048M-489.869 697.982V740.803M-489.869 697.982H-447.048M-489.869 740.803V783.624M-489.869 740.803H-447.048M-489.869 783.624V826.445M-489.869 783.624H-447.048M-489.869 826.445V869.266M-489.869 826.445H-447.048M-489.869 869.266H-447.048M-447.048 12.8462V55.6672M-447.048 12.8462H-404.227M-447.048 55.6672V98.4881M-447.048 55.6672H-404.227M-447.048 98.4881V141.309M-447.048 98.4881H-404.227M-447.048 141.309V184.13M-447.048 141.309H-404.227M-447.048 184.13V226.951M-447.048 184.13H-404.227M-447.048 226.951V269.772M-447.048 226.951H-404.227M-447.048 269.772V312.593M-447.048 269.772H-404.227M-447.048 312.593V355.414M-447.048 312.593H-404.227M-447.048 355.414V398.235M-447.048 355.414H-404.227M-447.048 398.235V441.056M-447.048 398.235H-404.227M-447.048 441.056V483.877M-447.048 441.056H-404.227M-447.048 483.877V526.698M-447.048 483.877H-404.227M-447.048 526.698V569.519M-447.048 526.698H-404.227M-447.048 569.519V612.34M-447.048 569.519H-404.227M-447.048 612.34V655.161M-447.048 612.34H-404.227M-447.048 655.161V697.982M-447.048 655.161H-404.227M-447.048 697.982V740.803M-447.048 697.982H-404.227M-447.048 740.803V783.624M-447.048 740.803H-404.227M-447.048 783.624V826.445M-447.048 783.624H-404.227M-447.048 826.445V869.266M-447.048 826.445H-404.227M-447.048 869.266H-404.227M-404.227 12.8462V55.6672M-404.227 12.8462H-361.406M-404.227 55.6672V98.4881M-404.227 55.6672H-361.406M-404.227 98.4881V141.309M-404.227 98.4881H-361.406M-404.227 141.309V184.13M-404.227 141.309H-361.406M-404.227 184.13V226.951M-404.227 184.13H-361.406M-404.227 226.951V269.772M-404.227 226.951H-361.406M-404.227 269.772V312.593M-404.227 269.772H-361.406M-404.227 312.593V355.414M-404.227 312.593H-361.406M-404.227 355.414V398.235M-404.227 355.414H-361.406M-404.227 398.235V441.056M-404.227 398.235H-361.406M-404.227 441.056V483.877M-404.227 441.056H-361.406M-404.227 483.877V526.698M-404.227 483.877H-361.406M-404.227 526.698V569.519M-404.227 526.698H-361.406M-404.227 569.519V612.34M-404.227 569.519H-361.406M-404.227 612.34V655.161M-404.227 612.34H-361.406M-404.227 655.161V697.982M-404.227 655.161H-361.406M-404.227 697.982V740.803M-404.227 697.982H-361.406M-404.227 740.803V783.624M-404.227 740.803H-361.406M-404.227 783.624V826.445M-404.227 783.624H-361.406M-404.227 826.445V869.266M-404.227 826.445H-361.406M-404.227 869.266H-361.406M-361.406 12.8462V55.6672M-361.406 12.8462H-318.585M-361.406 55.6672V98.4881M-361.406 55.6672H-318.585M-361.406 98.4881V141.309M-361.406 98.4881H-318.585M-361.406 141.309V184.13M-361.406 141.309H-318.585M-361.406 184.13V226.951M-361.406 184.13H-318.585M-361.406 226.951V269.772M-361.406 226.951H-318.585M-361.406 269.772V312.593M-361.406 269.772H-318.585M-361.406 312.593V355.414M-361.406 312.593H-318.585M-361.406 355.414V398.235M-361.406 355.414H-318.585M-361.406 398.235V441.056M-361.406 398.235H-318.585M-361.406 441.056V483.877M-361.406 441.056H-318.585M-361.406 483.877V526.698M-361.406 483.877H-318.585M-361.406 526.698V569.519M-361.406 526.698H-318.585M-361.406 569.519V612.34M-361.406 569.519H-318.585M-361.406 612.34V655.161M-361.406 612.34H-318.585M-361.406 655.161V697.982M-361.406 655.161H-318.585M-361.406 697.982V740.803M-361.406 697.982H-318.585M-361.406 740.803V783.624M-361.406 740.803H-318.585M-361.406 783.624V826.445M-361.406 783.624H-318.585M-361.406 826.445V869.266M-361.406 826.445H-318.585M-361.406 869.266H-318.585M-318.585 12.8462V55.6672M-318.585 12.8462H-275.764M-318.585 55.6672V98.4881M-318.585 55.6672H-275.764M-318.585 98.4881V141.309M-318.585 98.4881H-275.764M-318.585 141.309V184.13M-318.585 141.309H-275.764M-318.585 184.13V226.951M-318.585 184.13H-275.764M-318.585 226.951V269.772M-318.585 226.951H-275.764M-318.585 269.772V312.593M-318.585 269.772H-275.764M-318.585 312.593V355.414M-318.585 312.593H-275.764M-318.585 355.414V398.235M-318.585 355.414H-275.764M-318.585 398.235V441.056M-318.585 398.235H-275.764M-318.585 441.056V483.877M-318.585 441.056H-275.764M-318.585 483.877V526.698M-318.585 483.877H-275.764M-318.585 526.698V569.519M-318.585 526.698H-275.764M-318.585 569.519V612.34M-318.585 569.519H-275.764M-318.585 612.34V655.161M-318.585 612.34H-275.764M-318.585 655.161V697.982M-318.585 655.161H-275.764M-318.585 697.982V740.803M-318.585 697.982H-275.764M-318.585 740.803V783.624M-318.585 740.803H-275.764M-318.585 783.624V826.445M-318.585 783.624H-275.764M-318.585 826.445V869.266M-318.585 826.445H-275.764M-318.585 869.266H-275.764M-275.764 12.8462V55.6672M-275.764 12.8462H-232.943M-275.764 55.6672V98.4881M-275.764 55.6672H-232.943M-275.764 98.4881V141.309M-275.764 98.4881H-232.943M-275.764 141.309V184.13M-275.764 141.309H-232.943M-275.764 184.13V226.951M-275.764 184.13H-232.943M-275.764 226.951V269.772M-275.764 226.951H-232.943M-275.764 269.772V312.593M-275.764 269.772H-232.943M-275.764 312.593V355.414M-275.764 312.593H-232.943M-275.764 355.414V398.235M-275.764 355.414H-232.943M-275.764 398.235V441.056M-275.764 398.235H-232.943M-275.764 441.056V483.877M-275.764 441.056H-232.943M-275.764 483.877V526.698M-275.764 483.877H-232.943M-275.764 526.698V569.519M-275.764 526.698H-232.943M-275.764 569.519V612.34M-275.764 569.519H-232.943M-275.764 612.34V655.161M-275.764 612.34H-232.943M-275.764 655.161V697.982M-275.764 655.161H-232.943M-275.764 697.982V740.803M-275.764 697.982H-232.943M-275.764 740.803V783.624M-275.764 740.803H-232.943M-275.764 783.624V826.445M-275.764 783.624H-232.943M-275.764 826.445V869.266M-275.764 826.445H-232.943M-275.764 869.266H-232.943M-232.943 12.8462V55.6672M-232.943 12.8462H-190.122M-232.943 55.6672V98.4881M-232.943 55.6672H-190.122M-232.943 98.4881V141.309M-232.943 98.4881H-190.122M-232.943 141.309V184.13M-232.943 141.309H-190.122M-232.943 184.13V226.951M-232.943 184.13H-190.122M-232.943 226.951V269.772M-232.943 226.951H-190.122M-232.943 269.772V312.593M-232.943 269.772H-190.122M-232.943 312.593V355.414M-232.943 312.593H-190.122M-232.943 355.414V398.235M-232.943 355.414H-190.122M-232.943 398.235V441.056M-232.943 398.235H-190.122M-232.943 441.056V483.877M-232.943 441.056H-190.122M-232.943 483.877V526.698M-232.943 483.877H-190.122M-232.943 526.698V569.519M-232.943 526.698H-190.122M-232.943 569.519V612.34M-232.943 569.519H-190.122M-232.943 612.34V655.161M-232.943 612.34H-190.122M-232.943 655.161V697.982M-232.943 655.161H-190.122M-232.943 697.982V740.803M-232.943 697.982H-190.122M-232.943 740.803V783.624M-232.943 740.803H-190.122M-232.943 783.624V826.445M-232.943 783.624H-190.122M-232.943 826.445V869.266M-232.943 826.445H-190.122M-232.943 869.266H-190.122M-190.122 12.8462V55.6672M-190.122 12.8462H-147.301M-190.122 55.6672V98.4881M-190.122 55.6672H-147.301M-190.122 98.4881V141.309M-190.122 98.4881H-147.301M-190.122 141.309V184.13M-190.122 141.309H-147.301M-190.122 184.13V226.951M-190.122 184.13H-147.301M-190.122 226.951V269.772M-190.122 226.951H-147.301M-190.122 269.772V312.593M-190.122 269.772H-147.301M-190.122 312.593V355.414M-190.122 312.593H-147.301M-190.122 355.414V398.235M-190.122 355.414H-147.301M-190.122 398.235V441.056M-190.122 398.235H-147.301M-190.122 441.056V483.877M-190.122 441.056H-147.301M-190.122 483.877V526.698M-190.122 483.877H-147.301M-190.122 526.698V569.519M-190.122 526.698H-147.301M-190.122 569.519V612.34M-190.122 569.519H-147.301M-190.122 612.34V655.161M-190.122 612.34H-147.301M-190.122 655.161V697.982M-190.122 655.161H-147.301M-190.122 697.982V740.803M-190.122 697.982H-147.301M-190.122 740.803V783.624M-190.122 740.803H-147.301M-190.122 783.624V826.445M-190.122 783.624H-147.301M-190.122 826.445V869.266M-190.122 826.445H-147.301M-190.122 869.266H-147.301M-147.301 12.8462V55.6672M-147.301 12.8462H-104.48M-147.301 55.6672V98.4881M-147.301 55.6672H-104.48M-147.301 98.4881V141.309M-147.301 98.4881H-104.48M-147.301 141.309V184.13M-147.301 141.309H-104.48M-147.301 184.13V226.951M-147.301 184.13H-104.48M-147.301 226.951V269.772M-147.301 226.951H-104.48M-147.301 269.772V312.593M-147.301 269.772H-104.48M-147.301 312.593V355.414M-147.301 312.593H-104.48M-147.301 355.414V398.235M-147.301 355.414H-104.48M-147.301 398.235V441.056M-147.301 398.235H-104.48M-147.301 441.056V483.877M-147.301 441.056H-104.48M-147.301 483.877V526.698M-147.301 483.877H-104.48M-147.301 526.698V569.519M-147.301 526.698H-104.48M-147.301 569.519V612.34M-147.301 569.519H-104.48M-147.301 612.34V655.161M-147.301 612.34H-104.48M-147.301 655.161V697.982M-147.301 655.161H-104.48M-147.301 697.982V740.803M-147.301 697.982H-104.48M-147.301 740.803V783.624M-147.301 740.803H-104.48M-147.301 783.624V826.445M-147.301 783.624H-104.48M-147.301 826.445V869.266M-147.301 826.445H-104.48M-147.301 869.266H-104.48M-104.48 12.8462V55.6672M-104.48 12.8462H-61.6595M-104.48 55.6672V98.4881M-104.48 55.6672H-61.6595M-104.48 98.4881V141.309M-104.48 98.4881H-61.6595M-104.48 141.309V184.13M-104.48 141.309H-61.6595M-104.48 184.13V226.951M-104.48 184.13H-61.6595M-104.48 226.951V269.772M-104.48 226.951H-61.6595M-104.48 269.772V312.593M-104.48 269.772H-61.6595M-104.48 312.593V355.414M-104.48 312.593H-61.6595M-104.48 355.414V398.235M-104.48 355.414H-61.6595M-104.48 398.235V441.056M-104.48 398.235H-61.6595M-104.48 441.056V483.877M-104.48 441.056H-61.6595M-104.48 483.877V526.698M-104.48 483.877H-61.6595M-104.48 526.698V569.519M-104.48 526.698H-61.6595M-104.48 569.519V612.34M-104.48 569.519H-61.6595M-104.48 612.34V655.161M-104.48 612.34H-61.6595M-104.48 655.161V697.982M-104.48 655.161H-61.6595M-104.48 697.982V740.803M-104.48 697.982H-61.6595M-104.48 740.803V783.624M-104.48 740.803H-61.6595M-104.48 783.624V826.445M-104.48 783.624H-61.6595M-104.48 826.445V869.266M-104.48 826.445H-61.6595M-104.48 869.266H-61.6595M-61.6595 12.8462V55.6672M-61.6595 12.8462H-18.8385M-61.6595 55.6672V98.4881M-61.6595 55.6672H-18.8385M-61.6595 98.4881V141.309M-61.6595 98.4881H-18.8385M-61.6595 141.309V184.13M-61.6595 141.309H-18.8385M-61.6595 184.13V226.951M-61.6595 184.13H-18.8385M-61.6595 226.951V269.772M-61.6595 226.951H-18.8385M-61.6595 269.772V312.593M-61.6595 269.772H-18.8385M-61.6595 312.593V355.414M-61.6595 312.593H-18.8385M-61.6595 355.414V398.235M-61.6595 355.414H-18.8385M-61.6595 398.235V441.056M-61.6595 398.235H-18.8385M-61.6595 441.056V483.877M-61.6595 441.056H-18.8385M-61.6595 483.877V526.698M-61.6595 483.877H-18.8385M-61.6595 526.698V569.519M-61.6595 526.698H-18.8385M-61.6595 569.519V612.34M-61.6595 569.519H-18.8385M-61.6595 612.34V655.161M-61.6595 612.34H-18.8385M-61.6595 655.161V697.982M-61.6595 655.161H-18.8385M-61.6595 697.982V740.803M-61.6595 697.982H-18.8385M-61.6595 740.803V783.624M-61.6595 740.803H-18.8385M-61.6595 783.624V826.445M-61.6595 783.624H-18.8385M-61.6595 826.445V869.266M-61.6595 826.445H-18.8385M-61.6595 869.266H-18.8385M-18.8385 12.8462V55.6672M-18.8385 12.8462H23.9824M-18.8385 55.6672V98.4881M-18.8385 55.6672H23.9824M-18.8385 98.4881V141.309M-18.8385 98.4881H23.9824M-18.8385 141.309V184.13M-18.8385 141.309H23.9824M-18.8385 184.13V226.951M-18.8385 184.13H23.9824M-18.8385 226.951V269.772M-18.8385 226.951H23.9824M-18.8385 269.772V312.593M-18.8385 269.772H23.9824M-18.8385 312.593V355.414M-18.8385 312.593H23.9824M-18.8385 355.414V398.235M-18.8385 355.414H23.9824M-18.8385 398.235V441.056M-18.8385 398.235H23.9824M-18.8385 441.056V483.877M-18.8385 441.056H23.9824M-18.8385 483.877V526.698M-18.8385 483.877H23.9824M-18.8385 526.698V569.519M-18.8385 526.698H23.9824M-18.8385 569.519V612.34M-18.8385 569.519H23.9824M-18.8385 612.34V655.161M-18.8385 612.34H23.9824M-18.8385 655.161V697.982M-18.8385 655.161H23.9824M-18.8385 697.982V740.803M-18.8385 697.982H23.9824M-18.8385 740.803V783.624M-18.8385 740.803H23.9824M-18.8385 783.624V826.445M-18.8385 783.624H23.9824M-18.8385 826.445V869.266M-18.8385 826.445H23.9824M-18.8385 869.266H23.9824M23.9824 12.8462V55.6672M23.9824 12.8462H66.8034M23.9824 55.6672V98.4881M23.9824 55.6672H66.8034M23.9824 98.4881V141.309M23.9824 98.4881H66.8034M23.9824 141.309V184.13M23.9824 141.309H66.8034M23.9824 184.13V226.951M23.9824 184.13H66.8034M23.9824 226.951V269.772M23.9824 226.951H66.8034M23.9824 269.772V312.593M23.9824 269.772H66.8034M23.9824 312.593V355.414M23.9824 312.593H66.8034M23.9824 355.414V398.235M23.9824 355.414H66.8034M23.9824 398.235V441.056M23.9824 398.235H66.8034M23.9824 441.056V483.877M23.9824 441.056H66.8034M23.9824 483.877V526.698M23.9824 483.877H66.8034M23.9824 526.698V569.519M23.9824 526.698H66.8034M23.9824 569.519V612.34M23.9824 569.519H66.8034M23.9824 612.34V655.161M23.9824 612.34H66.8034M23.9824 655.161V697.982M23.9824 655.161H66.8034M23.9824 697.982V740.803M23.9824 697.982H66.8034M23.9824 740.803V783.624M23.9824 740.803H66.8034M23.9824 783.624V826.445M23.9824 783.624H66.8034M23.9824 826.445V869.266M23.9824 826.445H66.8034M23.9824 869.266H66.8034M66.8034 12.8462V55.6672M66.8034 12.8462H109.624M66.8034 55.6672V98.4881M66.8034 55.6672H109.624M66.8034 98.4881V141.309M66.8034 98.4881H109.624M66.8034 141.309V184.13M66.8034 141.309H109.624M66.8034 184.13V226.951M66.8034 184.13H109.624M66.8034 226.951V269.772M66.8034 226.951H109.624M66.8034 269.772V312.593M66.8034 269.772H109.624M66.8034 312.593V355.414M66.8034 312.593H109.624M66.8034 355.414V398.235M66.8034 355.414H109.624M66.8034 398.235V441.056M66.8034 398.235H109.624M66.8034 441.056V483.877M66.8034 441.056H109.624M66.8034 483.877V526.698M66.8034 483.877H109.624M66.8034 526.698V569.519M66.8034 526.698H109.624M66.8034 569.519V612.34M66.8034 569.519H109.624M66.8034 612.34V655.161M66.8034 612.34H109.624M66.8034 655.161V697.982M66.8034 655.161H109.624M66.8034 697.982V740.803M66.8034 697.982H109.624M66.8034 740.803V783.624M66.8034 740.803H109.624M66.8034 783.624V826.445M66.8034 783.624H109.624M66.8034 826.445V869.266M66.8034 826.445H109.624M66.8034 869.266H109.624M109.624 12.8462V55.6672M109.624 12.8462H152.445M109.624 55.6672V98.4881M109.624 55.6672H152.445M109.624 98.4881V141.309M109.624 98.4881H152.445M109.624 141.309V184.13M109.624 141.309H152.445M109.624 184.13V226.951M109.624 184.13H152.445M109.624 226.951V269.772M109.624 226.951H152.445M109.624 269.772V312.593M109.624 269.772H152.445M109.624 312.593V355.414M109.624 312.593H152.445M109.624 355.414V398.235M109.624 355.414H152.445M109.624 398.235V441.056M109.624 398.235H152.445M109.624 441.056V483.877M109.624 441.056H152.445M109.624 483.877V526.698M109.624 483.877H152.445M109.624 526.698V569.519M109.624 526.698H152.445M109.624 569.519V612.34M109.624 569.519H152.445M109.624 612.34V655.161M109.624 612.34H152.445M109.624 655.161V697.982M109.624 655.161H152.445M109.624 697.982V740.803M109.624 697.982H152.445M109.624 740.803V783.624M109.624 740.803H152.445M109.624 783.624V826.445M109.624 783.624H152.445M109.624 826.445V869.266M109.624 826.445H152.445M109.624 869.266H152.445M152.445 12.8462V55.6672M152.445 12.8462H195.266M152.445 55.6672V98.4881M152.445 55.6672H195.266M152.445 98.4881V141.309M152.445 98.4881H195.266M152.445 141.309V184.13M152.445 141.309H195.266M152.445 184.13V226.951M152.445 184.13H195.266M152.445 226.951V269.772M152.445 226.951H195.266M152.445 269.772V312.593M152.445 269.772H195.266M152.445 312.593V355.414M152.445 312.593H195.266M152.445 355.414V398.235M152.445 355.414H195.266M152.445 398.235V441.056M152.445 398.235H195.266M152.445 441.056V483.877M152.445 441.056H195.266M152.445 483.877V526.698M152.445 483.877H195.266M152.445 526.698V569.519M152.445 526.698H195.266M152.445 569.519V612.34M152.445 569.519H195.266M152.445 612.34V655.161M152.445 612.34H195.266M152.445 655.161V697.982M152.445 655.161H195.266M152.445 697.982V740.803M152.445 697.982H195.266M152.445 740.803V783.624M152.445 740.803H195.266M152.445 783.624V826.445M152.445 783.624H195.266M152.445 826.445V869.266M152.445 826.445H195.266M152.445 869.266H195.266M195.266 12.8462V55.6672M195.266 12.8462H238.087M195.266 55.6672V98.4881M195.266 55.6672H238.087M195.266 98.4881V141.309M195.266 98.4881H238.087M195.266 141.309V184.13M195.266 141.309H238.087M195.266 184.13V226.951M195.266 184.13H238.087M195.266 226.951V269.772M195.266 226.951H238.087M195.266 269.772V312.593M195.266 269.772H238.087M195.266 312.593V355.414M195.266 312.593H238.087M195.266 355.414V398.235M195.266 355.414H238.087M195.266 398.235V441.056M195.266 398.235H238.087M195.266 441.056V483.877M195.266 441.056H238.087M195.266 483.877V526.698M195.266 483.877H238.087M195.266 526.698V569.519M195.266 526.698H238.087M195.266 569.519V612.34M195.266 569.519H238.087M195.266 612.34V655.161M195.266 612.34H238.087M195.266 655.161V697.982M195.266 655.161H238.087M195.266 697.982V740.803M195.266 697.982H238.087M195.266 740.803V783.624M195.266 740.803H238.087M195.266 783.624V826.445M195.266 783.624H238.087M195.266 826.445V869.266M195.266 826.445H238.087M195.266 869.266H238.087M238.087 12.8462V55.6672M238.087 12.8462H280.908M238.087 55.6672V98.4881M238.087 55.6672H280.908M238.087 98.4881V141.309M238.087 98.4881H280.908M238.087 141.309V184.13M238.087 141.309H280.908M238.087 184.13V226.951M238.087 184.13H280.908M238.087 226.951V269.772M238.087 226.951H280.908M238.087 269.772V312.593M238.087 269.772H280.908M238.087 312.593V355.414M238.087 312.593H280.908M238.087 355.414V398.235M238.087 355.414H280.908M238.087 398.235V441.056M238.087 398.235H280.908M238.087 441.056V483.877M238.087 441.056H280.908M238.087 483.877V526.698M238.087 483.877H280.908M238.087 526.698V569.519M238.087 526.698H280.908M238.087 569.519V612.34M238.087 569.519H280.908M238.087 612.34V655.161M238.087 612.34H280.908M238.087 655.161V697.982M238.087 655.161H280.908M238.087 697.982V740.803M238.087 697.982H280.908M238.087 740.803V783.624M238.087 740.803H280.908M238.087 783.624V826.445M238.087 783.624H280.908M238.087 826.445V869.266M238.087 826.445H280.908M238.087 869.266H280.908M280.908 12.8462V55.6672M280.908 12.8462H323.729M280.908 55.6672V98.4881M280.908 55.6672H323.729M280.908 98.4881V141.309M280.908 98.4881H323.729M280.908 141.309V184.13M280.908 141.309H323.729M280.908 184.13V226.951M280.908 184.13H323.729M280.908 226.951V269.772M280.908 226.951H323.729M280.908 269.772V312.593M280.908 269.772H323.729M280.908 312.593V355.414M280.908 312.593H323.729M280.908 355.414V398.235M280.908 355.414H323.729M280.908 398.235V441.056M280.908 398.235H323.729M280.908 441.056V483.877M280.908 441.056H323.729M280.908 483.877V526.698M280.908 483.877H323.729M280.908 526.698V569.519M280.908 526.698H323.729M280.908 569.519V612.34M280.908 569.519H323.729M280.908 612.34V655.161M280.908 612.34H323.729M280.908 655.161V697.982M280.908 655.161H323.729M280.908 697.982V740.803M280.908 697.982H323.729M280.908 740.803V783.624M280.908 740.803H323.729M280.908 783.624V826.445M280.908 783.624H323.729M280.908 826.445V869.266M280.908 826.445H323.729M280.908 869.266H323.729M323.729 12.8462V55.6672M323.729 12.8462H366.55M323.729 55.6672V98.4881M323.729 55.6672H366.55M323.729 98.4881V141.309M323.729 98.4881H366.55M323.729 141.309V184.13M323.729 141.309H366.55M323.729 184.13V226.951M323.729 184.13H366.55M323.729 226.951V269.772M323.729 226.951H366.55M323.729 269.772V312.593M323.729 269.772H366.55M323.729 312.593V355.414M323.729 312.593H366.55M323.729 355.414V398.235M323.729 355.414H366.55M323.729 398.235V441.056M323.729 398.235H366.55M323.729 441.056V483.877M323.729 441.056H366.55M323.729 483.877V526.698M323.729 483.877H366.55M323.729 526.698V569.519M323.729 526.698H366.55M323.729 569.519V612.34M323.729 569.519H366.55M323.729 612.34V655.161M323.729 612.34H366.55M323.729 655.161V697.982M323.729 655.161H366.55M323.729 697.982V740.803M323.729 697.982H366.55M323.729 740.803V783.624M323.729 740.803H366.55M323.729 783.624V826.445M323.729 783.624H366.55M323.729 826.445V869.266M323.729 826.445H366.55M323.729 869.266H366.55M366.55 12.8462V55.6672M366.55 12.8462H409.371M366.55 55.6672V98.4881M366.55 55.6672H409.371M366.55 98.4881V141.309M366.55 98.4881H409.371M366.55 141.309V184.13M366.55 141.309H409.371M366.55 184.13V226.951M366.55 184.13H409.371M366.55 226.951V269.772M366.55 226.951H409.371M366.55 269.772V312.593M366.55 269.772H409.371M366.55 312.593V355.414M366.55 312.593H409.371M366.55 355.414V398.235M366.55 355.414H409.371M366.55 398.235V441.056M366.55 398.235H409.371M366.55 441.056V483.877M366.55 441.056H409.371M366.55 483.877V526.698M366.55 483.877H409.371M366.55 526.698V569.519M366.55 526.698H409.371M366.55 569.519V612.34M366.55 569.519H409.371M366.55 612.34V655.161M366.55 612.34H409.371M366.55 655.161V697.982M366.55 655.161H409.371M366.55 697.982V740.803M366.55 697.982H409.371M366.55 740.803V783.624M366.55 740.803H409.371M366.55 783.624V826.445M366.55 783.624H409.371M366.55 826.445V869.266M366.55 826.445H409.371M366.55 869.266H409.371M409.371 12.8462V55.6672M409.371 12.8462H452.192M409.371 55.6672V98.4881M409.371 55.6672H452.192M409.371 98.4881V141.309M409.371 98.4881H452.192M409.371 141.309V184.13M409.371 141.309H452.192M409.371 184.13V226.951M409.371 184.13H452.192M409.371 226.951V269.772M409.371 226.951H452.192M409.371 269.772V312.593M409.371 269.772H452.192M409.371 312.593V355.414M409.371 312.593H452.192M409.371 355.414V398.235M409.371 355.414H452.192M409.371 398.235V441.056M409.371 398.235H452.192M409.371 441.056V483.877M409.371 441.056H452.192M409.371 483.877V526.698M409.371 483.877H452.192M409.371 526.698V569.519M409.371 526.698H452.192M409.371 569.519V612.34M409.371 569.519H452.192M409.371 612.34V655.161M409.371 612.34H452.192M409.371 655.161V697.982M409.371 655.161H452.192M409.371 697.982V740.803M409.371 697.982H452.192M409.371 740.803V783.624M409.371 740.803H452.192M409.371 783.624V826.445M409.371 783.624H452.192M409.371 826.445V869.266M409.371 826.445H452.192M409.371 869.266H452.192M452.192 12.8462V55.6672M452.192 12.8462H495.013M452.192 55.6672V98.4881M452.192 55.6672H495.013M452.192 98.4881V141.309M452.192 98.4881H495.013M452.192 141.309V184.13M452.192 141.309H495.013M452.192 184.13V226.951M452.192 184.13H495.013M452.192 226.951V269.772M452.192 226.951H495.013M452.192 269.772V312.593M452.192 269.772H495.013M452.192 312.593V355.414M452.192 312.593H495.013M452.192 355.414V398.235M452.192 355.414H495.013M452.192 398.235V441.056M452.192 398.235H495.013M452.192 441.056V483.877M452.192 441.056H495.013M452.192 483.877V526.698M452.192 483.877H495.013M452.192 526.698V569.519M452.192 526.698H495.013M452.192 569.519V612.34M452.192 569.519H495.013M452.192 612.34V655.161M452.192 612.34H495.013M452.192 655.161V697.982M452.192 655.161H495.013M452.192 697.982V740.803M452.192 697.982H495.013M452.192 740.803V783.624M452.192 740.803H495.013M452.192 783.624V826.445M452.192 783.624H495.013M452.192 826.445V869.266M452.192 826.445H495.013M452.192 869.266H495.013M495.013 12.8462V55.6672M495.013 12.8462H537.834M495.013 55.6672V98.4881M495.013 55.6672H537.834M495.013 98.4881V141.309M495.013 98.4881H537.834M495.013 141.309V184.13M495.013 141.309H537.834M495.013 184.13V226.951M495.013 184.13H537.834M495.013 226.951V269.772M495.013 226.951H537.834M495.013 269.772V312.593M495.013 269.772H537.834M495.013 312.593V355.414M495.013 312.593H537.834M495.013 355.414V398.235M495.013 355.414H537.834M495.013 398.235V441.056M495.013 398.235H537.834M495.013 441.056V483.877M495.013 441.056H537.834M495.013 483.877V526.698M495.013 483.877H537.834M495.013 526.698V569.519M495.013 526.698H537.834M495.013 569.519V612.34M495.013 569.519H537.834M495.013 612.34V655.161M495.013 612.34H537.834M495.013 655.161V697.982M495.013 655.161H537.834M495.013 697.982V740.803M495.013 697.982H537.834M495.013 740.803V783.624M495.013 740.803H537.834M495.013 783.624V826.445M495.013 783.624H537.834M495.013 826.445V869.266M495.013 826.445H537.834M495.013 869.266H537.834M537.834 12.8462V55.6672M537.834 12.8462H580.655M537.834 55.6672V98.4881M537.834 55.6672H580.655M537.834 98.4881V141.309M537.834 98.4881H580.655M537.834 141.309V184.13M537.834 141.309H580.655M537.834 184.13V226.951M537.834 184.13H580.655M537.834 226.951V269.772M537.834 226.951H580.655M537.834 269.772V312.593M537.834 269.772H580.655M537.834 312.593V355.414M537.834 312.593H580.655M537.834 355.414V398.235M537.834 355.414H580.655M537.834 398.235V441.056M537.834 398.235H580.655M537.834 441.056V483.877M537.834 441.056H580.655M537.834 483.877V526.698M537.834 483.877H580.655M537.834 526.698V569.519M537.834 526.698H580.655M537.834 569.519V612.34M537.834 569.519H580.655M537.834 612.34V655.161M537.834 612.34H580.655M537.834 655.161V697.982M537.834 655.161H580.655M537.834 697.982V740.803M537.834 697.982H580.655M537.834 740.803V783.624M537.834 740.803H580.655M537.834 783.624V826.445M537.834 783.624H580.655M537.834 826.445V869.266M537.834 826.445H580.655M537.834 869.266H580.655M580.655 12.8462V55.6672M580.655 12.8462H623.476M580.655 55.6672V98.4881M580.655 55.6672H623.476M580.655 98.4881V141.309M580.655 98.4881H623.476M580.655 141.309V184.13M580.655 141.309H623.476M580.655 184.13V226.951M580.655 184.13H623.476M580.655 226.951V269.772M580.655 226.951H623.476M580.655 269.772V312.593M580.655 269.772H623.476M580.655 312.593V355.414M580.655 312.593H623.476M580.655 355.414V398.235M580.655 355.414H623.476M580.655 398.235V441.056M580.655 398.235H623.476M580.655 441.056V483.877M580.655 441.056H623.476M580.655 483.877V526.698M580.655 483.877H623.476M580.655 526.698V569.519M580.655 526.698H623.476M580.655 569.519V612.34M580.655 569.519H623.476M580.655 612.34V655.161M580.655 612.34H623.476M580.655 655.161V697.982M580.655 655.161H623.476M580.655 697.982V740.803M580.655 697.982H623.476M580.655 740.803V783.624M580.655 740.803H623.476M580.655 783.624V826.445M580.655 783.624H623.476M580.655 826.445V869.266M580.655 826.445H623.476M580.655 869.266H623.476M623.476 12.8462V55.6672M623.476 12.8462H666.297M623.476 55.6672V98.4881M623.476 55.6672H666.297M623.476 98.4881V141.309M623.476 98.4881H666.297M623.476 141.309V184.13M623.476 141.309H666.297M623.476 184.13V226.951M623.476 184.13H666.297M623.476 226.951V269.772M623.476 226.951H666.297M623.476 269.772V312.593M623.476 269.772H666.297M623.476 312.593V355.414M623.476 312.593H666.297M623.476 355.414V398.235M623.476 355.414H666.297M623.476 398.235V441.056M623.476 398.235H666.297M623.476 441.056V483.877M623.476 441.056H666.297M623.476 483.877V526.698M623.476 483.877H666.297M623.476 526.698V569.519M623.476 526.698H666.297M623.476 569.519V612.34M623.476 569.519H666.297M623.476 612.34V655.161M623.476 612.34H666.297M623.476 655.161V697.982M623.476 655.161H666.297M623.476 697.982V740.803M623.476 697.982H666.297M623.476 740.803V783.624M623.476 740.803H666.297M623.476 783.624V826.445M623.476 783.624H666.297M623.476 826.445V869.266M623.476 826.445H666.297M623.476 869.266H666.297M666.297 12.8462V55.6672M666.297 12.8462H709.118M666.297 55.6672V98.4881M666.297 55.6672H709.118M666.297 98.4881V141.309M666.297 98.4881H709.118M666.297 141.309V184.13M666.297 141.309H709.118M666.297 184.13V226.951M666.297 184.13H709.118M666.297 226.951V269.772M666.297 226.951H709.118M666.297 269.772V312.593M666.297 269.772H709.118M666.297 312.593V355.414M666.297 312.593H709.118M666.297 355.414V398.235M666.297 355.414H709.118M666.297 398.235V441.056M666.297 398.235H709.118M666.297 441.056V483.877M666.297 441.056H709.118M666.297 483.877V526.698M666.297 483.877H709.118M666.297 526.698V569.519M666.297 526.698H709.118M666.297 569.519V612.34M666.297 569.519H709.118M666.297 612.34V655.161M666.297 612.34H709.118M666.297 655.161V697.982M666.297 655.161H709.118M666.297 697.982V740.803M666.297 697.982H709.118M666.297 740.803V783.624M666.297 740.803H709.118M666.297 783.624V826.445M666.297 783.624H709.118M666.297 826.445V869.266M666.297 826.445H709.118M666.297 869.266H709.118M709.118 12.8462V55.6672M709.118 12.8462H751.939M709.118 55.6672V98.4881M709.118 55.6672H751.939M709.118 98.4881V141.309M709.118 98.4881H751.939M709.118 141.309V184.13M709.118 141.309H751.939M709.118 184.13V226.951M709.118 184.13H751.939M709.118 226.951V269.772M709.118 226.951H751.939M709.118 269.772V312.593M709.118 269.772H751.939M709.118 312.593V355.414M709.118 312.593H751.939M709.118 355.414V398.235M709.118 355.414H751.939M709.118 398.235V441.056M709.118 398.235H751.939M709.118 441.056V483.877M709.118 441.056H751.939M709.118 483.877V526.698M709.118 483.877H751.939M709.118 526.698V569.519M709.118 526.698H751.939M709.118 569.519V612.34M709.118 569.519H751.939M709.118 612.34V655.161M709.118 612.34H751.939M709.118 655.161V697.982M709.118 655.161H751.939M709.118 697.982V740.803M709.118 697.982H751.939M709.118 740.803V783.624M709.118 740.803H751.939M709.118 783.624V826.445M709.118 783.624H751.939M709.118 826.445V869.266M709.118 826.445H751.939M709.118 869.266H751.939M751.939 12.8462V55.6672M751.939 12.8462H794.76M751.939 55.6672V98.4881M751.939 55.6672H794.76M751.939 98.4881V141.309M751.939 98.4881H794.76M751.939 141.309V184.13M751.939 141.309H794.76M751.939 184.13V226.951M751.939 184.13H794.76M751.939 226.951V269.772M751.939 226.951H794.76M751.939 269.772V312.593M751.939 269.772H794.76M751.939 312.593V355.414M751.939 312.593H794.76M751.939 355.414V398.235M751.939 355.414H794.76M751.939 398.235V441.056M751.939 398.235H794.76M751.939 441.056V483.877M751.939 441.056H794.76M751.939 483.877V526.698M751.939 483.877H794.76M751.939 526.698V569.519M751.939 526.698H794.76M751.939 569.519V612.34M751.939 569.519H794.76M751.939 612.34V655.161M751.939 612.34H794.76M751.939 655.161V697.982M751.939 655.161H794.76M751.939 697.982V740.803M751.939 697.982H794.76M751.939 740.803V783.624M751.939 740.803H794.76M751.939 783.624V826.445M751.939 783.624H794.76M751.939 826.445V869.266M751.939 826.445H794.76M751.939 869.266H794.76M794.76 12.8462V55.6672M794.76 12.8462H837.581M794.76 55.6672V98.4881M794.76 55.6672H837.581M794.76 98.4881V141.309M794.76 98.4881H837.581M794.76 141.309V184.13M794.76 141.309H837.581M794.76 184.13V226.951M794.76 184.13H837.581M794.76 226.951V269.772M794.76 226.951H837.581M794.76 269.772V312.593M794.76 269.772H837.581M794.76 312.593V355.414M794.76 312.593H837.581M794.76 355.414V398.235M794.76 355.414H837.581M794.76 398.235V441.056M794.76 398.235H837.581M794.76 441.056V483.877M794.76 441.056H837.581M794.76 483.877V526.698M794.76 483.877H837.581M794.76 526.698V569.519M794.76 526.698H837.581M794.76 569.519V612.34M794.76 569.519H837.581M794.76 612.34V655.161M794.76 612.34H837.581M794.76 655.161V697.982M794.76 655.161H837.581M794.76 697.982V740.803M794.76 697.982H837.581M794.76 740.803V783.624M794.76 740.803H837.581M794.76 783.624V826.445M794.76 783.624H837.581M794.76 826.445V869.266M794.76 826.445H837.581M794.76 869.266H837.581M837.581 12.8462V55.6672M837.581 12.8462H880.402M837.581 55.6672V98.4881M837.581 55.6672H880.402M837.581 98.4881V141.309M837.581 98.4881H880.402M837.581 141.309V184.13M837.581 141.309H880.402M837.581 184.13V226.951M837.581 184.13H880.402M837.581 226.951V269.772M837.581 226.951H880.402M837.581 269.772V312.593M837.581 269.772H880.402M837.581 312.593V355.414M837.581 312.593H880.402M837.581 355.414V398.235M837.581 355.414H880.402M837.581 398.235V441.056M837.581 398.235H880.402M837.581 441.056V483.877M837.581 441.056H880.402M837.581 483.877V526.698M837.581 483.877H880.402M837.581 526.698V569.519M837.581 526.698H880.402M837.581 569.519V612.34M837.581 569.519H880.402M837.581 612.34V655.161M837.581 612.34H880.402M837.581 655.161V697.982M837.581 655.161H880.402M837.581 697.982V740.803M837.581 697.982H880.402M837.581 740.803V783.624M837.581 740.803H880.402M837.581 783.624V826.445M837.581 783.624H880.402M837.581 826.445V869.266M837.581 826.445H880.402M837.581 869.266H880.402M880.402 12.8462V55.6672M880.402 12.8462H923.223M880.402 55.6672V98.4881M880.402 55.6672H923.223M880.402 98.4881V141.309M880.402 98.4881H923.223M880.402 141.309V184.13M880.402 141.309H923.223M880.402 184.13V226.951M880.402 184.13H923.223M880.402 226.951V269.772M880.402 226.951H923.223M880.402 269.772V312.593M880.402 269.772H923.223M880.402 312.593V355.414M880.402 312.593H923.223M880.402 355.414V398.235M880.402 355.414H923.223M880.402 398.235V441.056M880.402 398.235H923.223M880.402 441.056V483.877M880.402 441.056H923.223M880.402 483.877V526.698M880.402 483.877H923.223M880.402 526.698V569.519M880.402 526.698H923.223M880.402 569.519V612.34M880.402 569.519H923.223M880.402 612.34V655.161M880.402 612.34H923.223M880.402 655.161V697.982M880.402 655.161H923.223M880.402 697.982V740.803M880.402 697.982H923.223M880.402 740.803V783.624M880.402 740.803H923.223M880.402 783.624V826.445M880.402 783.624H923.223M880.402 826.445V869.266M880.402 826.445H923.223M880.402 869.266H923.223M923.223 12.8462V55.6672M923.223 12.8462H966.044M923.223 55.6672V98.4881M923.223 55.6672H966.044M923.223 98.4881V141.309M923.223 98.4881H966.044M923.223 141.309V184.13M923.223 141.309H966.044M923.223 184.13V226.951M923.223 184.13H966.044M923.223 226.951V269.772M923.223 226.951H966.044M923.223 269.772V312.593M923.223 269.772H966.044M923.223 312.593V355.414M923.223 312.593H966.044M923.223 355.414V398.235M923.223 355.414H966.044M923.223 398.235V441.056M923.223 398.235H966.044M923.223 441.056V483.877M923.223 441.056H966.044M923.223 483.877V526.698M923.223 483.877H966.044M923.223 526.698V569.519M923.223 526.698H966.044M923.223 569.519V612.34M923.223 569.519H966.044M923.223 612.34V655.161M923.223 612.34H966.044M923.223 655.161V697.982M923.223 655.161H966.044M923.223 697.982V740.803M923.223 697.982H966.044M923.223 740.803V783.624M923.223 740.803H966.044M923.223 783.624V826.445M923.223 783.624H966.044M923.223 826.445V869.266M923.223 826.445H966.044M923.223 869.266H966.044M966.044 12.8462V55.6672M966.044 12.8462H1008.86M966.044 55.6672V98.4881M966.044 55.6672H1008.86M966.044 98.4881V141.309M966.044 98.4881H1008.86M966.044 141.309V184.13M966.044 141.309H1008.86M966.044 184.13V226.951M966.044 184.13H1008.86M966.044 226.951V269.772M966.044 226.951H1008.86M966.044 269.772V312.593M966.044 269.772H1008.86M966.044 312.593V355.414M966.044 312.593H1008.86M966.044 355.414V398.235M966.044 355.414H1008.86M966.044 398.235V441.056M966.044 398.235H1008.86M966.044 441.056V483.877M966.044 441.056H1008.86M966.044 483.877V526.698M966.044 483.877H1008.86M966.044 526.698V569.519M966.044 526.698H1008.86M966.044 569.519V612.34M966.044 569.519H1008.86M966.044 612.34V655.161M966.044 612.34H1008.86M966.044 655.161V697.982M966.044 655.161H1008.86M966.044 697.982V740.803M966.044 697.982H1008.86M966.044 740.803V783.624M966.044 740.803H1008.86M966.044 783.624V826.445M966.044 783.624H1008.86M966.044 826.445V869.266M966.044 826.445H1008.86M966.044 869.266H1008.86M1008.86 12.8462V55.6672M1008.86 12.8462H1051.69M1008.86 55.6672V98.4881M1008.86 55.6672H1051.69M1008.86 98.4881V141.309M1008.86 98.4881H1051.69M1008.86 141.309V184.13M1008.86 141.309H1051.69M1008.86 184.13V226.951M1008.86 184.13H1051.69M1008.86 226.951V269.772M1008.86 226.951H1051.69M1008.86 269.772V312.593M1008.86 269.772H1051.69M1008.86 312.593V355.414M1008.86 312.593H1051.69M1008.86 355.414V398.235M1008.86 355.414H1051.69M1008.86 398.235V441.056M1008.86 398.235H1051.69M1008.86 441.056V483.877M1008.86 441.056H1051.69M1008.86 483.877V526.698M1008.86 483.877H1051.69M1008.86 526.698V569.519M1008.86 526.698H1051.69M1008.86 569.519V612.34M1008.86 569.519H1051.69M1008.86 612.34V655.161M1008.86 612.34H1051.69M1008.86 655.161V697.982M1008.86 655.161H1051.69M1008.86 697.982V740.803M1008.86 697.982H1051.69M1008.86 740.803V783.624M1008.86 740.803H1051.69M1008.86 783.624V826.445M1008.86 783.624H1051.69M1008.86 826.445V869.266M1008.86 826.445H1051.69M1008.86 869.266H1051.69M1051.69 12.8462V55.6672M1051.69 12.8462H1094.51M1051.69 55.6672V98.4881M1051.69 55.6672H1094.51M1051.69 98.4881V141.309M1051.69 98.4881H1094.51M1051.69 141.309V184.13M1051.69 141.309H1094.51M1051.69 184.13V226.951M1051.69 184.13H1094.51M1051.69 226.951V269.772M1051.69 226.951H1094.51M1051.69 269.772V312.593M1051.69 269.772H1094.51M1051.69 312.593V355.414M1051.69 312.593H1094.51M1051.69 355.414V398.235M1051.69 355.414H1094.51M1051.69 398.235V441.056M1051.69 398.235H1094.51M1051.69 441.056V483.877M1051.69 441.056H1094.51M1051.69 483.877V526.698M1051.69 483.877H1094.51M1051.69 526.698V569.519M1051.69 526.698H1094.51M1051.69 569.519V612.34M1051.69 569.519H1094.51M1051.69 612.34V655.161M1051.69 612.34H1094.51M1051.69 655.161V697.982M1051.69 655.161H1094.51M1051.69 697.982V740.803M1051.69 697.982H1094.51M1051.69 740.803V783.624M1051.69 740.803H1094.51M1051.69 783.624V826.445M1051.69 783.624H1094.51M1051.69 826.445V869.266M1051.69 826.445H1094.51M1051.69 869.266H1094.51M1094.51 12.8462V55.6672M1094.51 12.8462H1137.33M1094.51 55.6672V98.4881M1094.51 55.6672H1137.33M1094.51 98.4881V141.309M1094.51 98.4881H1137.33M1094.51 141.309V184.13M1094.51 141.309H1137.33M1094.51 184.13V226.951M1094.51 184.13H1137.33M1094.51 226.951V269.772M1094.51 226.951H1137.33M1094.51 269.772V312.593M1094.51 269.772H1137.33M1094.51 312.593V355.414M1094.51 312.593H1137.33M1094.51 355.414V398.235M1094.51 355.414H1137.33M1094.51 398.235V441.056M1094.51 398.235H1137.33M1094.51 441.056V483.877M1094.51 441.056H1137.33M1094.51 483.877V526.698M1094.51 483.877H1137.33M1094.51 526.698V569.519M1094.51 526.698H1137.33M1094.51 569.519V612.34M1094.51 569.519H1137.33M1094.51 612.34V655.161M1094.51 612.34H1137.33M1094.51 655.161V697.982M1094.51 655.161H1137.33M1094.51 697.982V740.803M1094.51 697.982H1137.33M1094.51 740.803V783.624M1094.51 740.803H1137.33M1094.51 783.624V826.445M1094.51 783.624H1137.33M1094.51 826.445V869.266M1094.51 826.445H1137.33M1094.51 869.266H1137.33M1137.33 12.8462V55.6672M1137.33 12.8462H1180.15M1137.33 55.6672V98.4881M1137.33 55.6672H1180.15M1137.33 98.4881V141.309M1137.33 98.4881H1180.15M1137.33 141.309V184.13M1137.33 141.309H1180.15M1137.33 184.13V226.951M1137.33 184.13H1180.15M1137.33 226.951V269.772M1137.33 226.951H1180.15M1137.33 269.772V312.593M1137.33 269.772H1180.15M1137.33 312.593V355.414M1137.33 312.593H1180.15M1137.33 355.414V398.235M1137.33 355.414H1180.15M1137.33 398.235V441.056M1137.33 398.235H1180.15M1137.33 441.056V483.877M1137.33 441.056H1180.15M1137.33 483.877V526.698M1137.33 483.877H1180.15M1137.33 526.698V569.519M1137.33 526.698H1180.15M1137.33 569.519V612.34M1137.33 569.519H1180.15M1137.33 612.34V655.161M1137.33 612.34H1180.15M1137.33 655.161V697.982M1137.33 655.161H1180.15M1137.33 697.982V740.803M1137.33 697.982H1180.15M1137.33 740.803V783.624M1137.33 740.803H1180.15M1137.33 783.624V826.445M1137.33 783.624H1180.15M1137.33 826.445V869.266M1137.33 826.445H1180.15M1137.33 869.266H1180.15M1180.15 12.8462V55.6672M1180.15 12.8462H1222.97V55.6672M1180.15 55.6672V98.4881M1180.15 55.6672H1222.97M1180.15 98.4881V141.309M1180.15 98.4881H1222.97M1180.15 141.309V184.13M1180.15 141.309H1222.97M1180.15 184.13V226.951M1180.15 184.13H1222.97M1180.15 226.951V269.772M1180.15 226.951H1222.97M1180.15 269.772V312.593M1180.15 269.772H1222.97M1180.15 312.593V355.414M1180.15 312.593H1222.97M1180.15 355.414V398.235M1180.15 355.414H1222.97M1180.15 398.235V441.056M1180.15 398.235H1222.97M1180.15 441.056V483.877M1180.15 441.056H1222.97M1180.15 483.877V526.698M1180.15 483.877H1222.97M1180.15 526.698V569.519M1180.15 526.698H1222.97M1180.15 569.519V612.34M1180.15 569.519H1222.97M1180.15 612.34V655.161M1180.15 612.34H1222.97M1180.15 655.161V697.982M1180.15 655.161H1222.97M1180.15 697.982V740.803M1180.15 697.982H1222.97M1180.15 740.803V783.624M1180.15 740.803H1222.97M1180.15 783.624V826.445M1180.15 783.624H1222.97M1180.15 826.445V869.266M1180.15 826.445H1222.97M1180.15 869.266H1222.97V826.445M1222.97 55.6672V98.4881M1222.97 98.4881V141.309M1222.97 141.309V184.13M1222.97 184.13V226.951M1222.97 226.951V269.772M1222.97 269.772V312.593M1222.97 312.593V355.414M1222.97 355.414V398.235M1222.97 398.235V441.056M1222.97 441.056V483.877M1222.97 483.877V526.698M1222.97 526.698V569.519M1222.97 569.519V612.34M1222.97 612.34V655.161M1222.97 655.161V697.982M1222.97 697.982V740.803M1222.97 740.803V783.624M1222.97 783.624V826.445" stroke="url(#paint0_radial_7_35)" stroke-opacity="0.6" stroke-width="0.805493"/>
</g>
<g style="mix-blend-mode:soft-light" opacity="0.8">
<path d="M-489.87 171.284V184.13M-489.87 184.13V196.976M-489.87 184.13H-502.716M-489.87 184.13H-477.023M-489.87 513.852V526.698M-489.87 526.698V539.544M-489.87 526.698H-502.716M-489.87 526.698H-477.023M-489.87 856.419V869.266M-489.87 869.266V882.112M-489.87 869.266H-502.716M-489.87 869.266H-477.023M-147.302 171.284V184.13M-147.302 184.13V196.976M-147.302 184.13H-160.148M-147.302 184.13H-134.456M-147.302 513.852V526.698M-147.302 526.698V539.544M-147.302 526.698H-160.148M-147.302 526.698H-134.456M-147.302 856.419V869.266M-147.302 869.266V882.112M-147.302 869.266H-160.148M-147.302 869.266H-134.456M195.266 171.284V184.13M195.266 184.13V196.976M195.266 184.13H182.42M195.266 184.13H208.112M195.266 513.852V526.698M195.266 526.698V539.544M195.266 526.698H182.42M195.266 526.698H208.112M195.266 856.419V869.266M195.266 869.266V882.112M195.266 869.266H182.42M195.266 869.266H208.112M537.834 171.284V184.13M537.834 184.13V196.976M537.834 184.13H524.988M537.834 184.13H550.68M537.834 513.852V526.698M537.834 526.698V539.544M537.834 526.698H524.988M537.834 526.698H550.68M537.834 856.419V869.266M537.834 869.266V882.112M537.834 869.266H524.988M537.834 869.266H550.68M880.401 171.284V184.13M880.401 184.13V196.976M880.401 184.13H867.555M880.401 184.13H893.248M880.401 513.852V526.698M880.401 526.698V539.544M880.401 526.698H867.555M880.401 526.698H893.248M880.401 856.419V869.266M880.401 869.266V882.112M880.401 869.266H867.555M880.401 869.266H893.248M1222.97 171.284V184.13M1222.97 184.13V196.976M1222.97 184.13H1210.12M1222.97 184.13H1235.82M1222.97 513.852V526.698M1222.97 526.698V539.544M1222.97 526.698H1210.12M1222.97 526.698H1235.82M1222.97 856.419V869.266M1222.97 869.266V882.112M1222.97 869.266H1210.12M1222.97 869.266H1235.82M-489.87 0V12.8463M-489.87 12.8463V25.6926M-489.87 12.8463H-502.716M-489.87 12.8463H-477.023M-489.87 342.568V355.414M-489.87 355.414V368.26M-489.87 355.414H-502.716M-489.87 355.414H-477.023M-489.87 685.135V697.982M-489.87 697.982V710.828M-489.87 697.982H-502.716M-489.87 697.982H-477.023M-147.302 0V12.8463M-147.302 12.8463V25.6926M-147.302 12.8463H-160.148M-147.302 12.8463H-134.456M-147.302 342.568V355.414M-147.302 355.414V368.26M-147.302 355.414H-160.148M-147.302 355.414H-134.456M-147.302 685.135V697.982M-147.302 697.982V710.828M-147.302 697.982H-160.148M-147.302 697.982H-134.456M195.266 0V12.8463M195.266 12.8463V25.6926M195.266 12.8463H182.42M195.266 12.8463H208.112M195.266 342.568V355.414M195.266 355.414V368.26M195.266 355.414H182.42M195.266 355.414H208.112M195.266 685.135V697.982M195.266 697.982V710.828M195.266 697.982H182.42M195.266 697.982H208.112M537.834 0V12.8463M537.834 12.8463V25.6926M537.834 12.8463H524.988M537.834 12.8463H550.68M537.834 342.568V355.414M537.834 355.414V368.26M537.834 355.414H524.988M537.834 355.414H550.68M537.834 685.135V697.982M537.834 697.982V710.828M537.834 697.982H524.988M537.834 697.982H550.68M880.401 0V12.8463M880.401 12.8463V25.6926M880.401 12.8463H867.555M880.401 12.8463H893.248M880.401 342.568V355.414M880.401 355.414V368.26M880.401 355.414H867.555M880.401 355.414H893.248M880.401 685.135V697.982M880.401 697.982V710.828M880.401 697.982H867.555M880.401 697.982H893.248M1222.97 0V12.8463M1222.97 12.8463V25.6926M1222.97 12.8463H1210.12M1222.97 12.8463H1235.82M1222.97 342.568V355.414M1222.97 355.414V368.26M1222.97 355.414H1210.12M1222.97 355.414H1235.82M1222.97 685.135V697.982M1222.97 697.982V710.828M1222.97 697.982H1210.12M1222.97 697.982H1235.82M-661.154 171.284V184.13M-661.154 184.13V196.976M-661.154 184.13H-674M-661.154 184.13H-648.307M-661.154 513.852V526.698M-661.154 526.698V539.544M-661.154 526.698H-674M-661.154 526.698H-648.307M-661.154 856.419V869.266M-661.154 869.266V882.112M-661.154 869.266H-674M-661.154 869.266H-648.307M-318.586 171.284V184.13M-318.586 184.13V196.976M-318.586 184.13H-331.432M-318.586 184.13H-305.74M-318.586 513.852V526.698M-318.586 526.698V539.544M-318.586 526.698H-331.432M-318.586 526.698H-305.74M-318.586 856.419V869.266M-318.586 869.266V882.112M-318.586 869.266H-331.432M-318.586 869.266H-305.74M23.982 171.284V184.13M23.982 184.13V196.976M23.982 184.13H11.1357M23.982 184.13H36.8283M23.982 513.852V526.698M23.982 526.698V539.544M23.982 526.698H11.1357M23.982 526.698H36.8283M23.982 856.419V869.266M23.982 869.266V882.112M23.982 869.266H11.1357M23.982 869.266H36.8283M366.55 171.284V184.13M366.55 184.13V196.976M366.55 184.13H353.704M366.55 184.13H379.396M366.55 513.852V526.698M366.55 526.698V539.544M366.55 526.698H353.704M366.55 526.698H379.396M366.55 856.419V869.266M366.55 869.266V882.112M366.55 869.266H353.704M366.55 869.266H379.396M709.118 171.284V184.13M709.118 184.13V196.976M709.118 184.13H696.271M709.118 184.13H721.964M709.118 513.852V526.698M709.118 526.698V539.544M709.118 526.698H696.271M709.118 526.698H721.964M709.118 856.419V869.266M709.118 869.266V882.112M709.118 869.266H696.271M709.118 869.266H721.964M1051.69 171.284V184.13M1051.69 184.13V196.976M1051.69 184.13H1038.84M1051.69 184.13H1064.53M1051.69 513.852V526.698M1051.69 526.698V539.544M1051.69 526.698H1038.84M1051.69 526.698H1064.53M1051.69 856.419V869.266M1051.69 869.266V882.112M1051.69 869.266H1038.84M1051.69 869.266H1064.53M-661.154 6.31525e-05V12.8464M-661.154 12.8464V25.6927M-661.154 12.8464H-674M-661.154 12.8464H-648.307M-661.154 342.568V355.414M-661.154 355.414V368.26M-661.154 355.414H-674M-661.154 355.414H-648.307M-661.154 685.135V697.982M-661.154 697.982V710.828M-661.154 697.982H-674M-661.154 697.982H-648.307M-318.586 0V12.8463M-318.586 12.8463V25.6926M-318.586 12.8463H-331.432M-318.586 12.8463H-305.74M-318.586 342.568V355.414M-318.586 355.414V368.26M-318.586 355.414H-331.432M-318.586 355.414H-305.74M-318.586 685.135V697.982M-318.586 697.982V710.828M-318.586 697.982H-331.432M-318.586 697.982H-305.74M23.982 0V12.8463M23.982 12.8463V25.6926M23.982 12.8463H11.1357M23.982 12.8463H36.8283M23.982 342.568V355.414M23.982 355.414V368.26M23.982 355.414H11.1357M23.982 355.414H36.8283M23.982 685.135V697.982M23.982 697.982V710.828M23.982 697.982H11.1357M23.982 697.982H36.8283M366.55 0V12.8463M366.55 12.8463V25.6926M366.55 12.8463H353.704M366.55 12.8463H379.396M366.55 342.568V355.414M366.55 355.414V368.26M366.55 355.414H353.704M366.55 355.414H379.396M366.55 685.135V697.982M366.55 697.982V710.828M366.55 697.982H353.704M366.55 697.982H379.396M709.118 0V12.8463M709.118 12.8463V25.6926M709.118 12.8463H696.271M709.118 12.8463H721.964M709.118 342.568V355.414M709.118 355.414V368.26M709.118 355.414H696.271M709.118 355.414H721.964M709.118 685.135V697.982M709.118 697.982V710.828M709.118 697.982H696.271M709.118 697.982H721.964M1051.69 0V12.8463M1051.69 12.8463V25.6926M1051.69 12.8463H1038.84M1051.69 12.8463H1064.53M1051.69 342.568V355.414M1051.69 355.414V368.26M1051.69 355.414H1038.84M1051.69 355.414H1064.53M1051.69 685.135V697.982M1051.69 697.982V710.828M1051.69 697.982H1038.84M1051.69 697.982H1064.53" stroke="url(#paint1_radial_7_35)" stroke-opacity="0.6" stroke-width="1.61099"/>
</g>
</g>
<path d="M842 355V354H-439V355V356H842V355Z" fill="#F0E5FF" mask="url(#path-1-inside-1_7_35)"/>
<defs>
<radialGradient id="paint0_radial_7_35" cx="0" cy="0" r="1" gradientUnits="userSpaceOnUse" gradientTransform="translate(280.908 441.056) rotate(90) scale(428.21 942.061)">
<stop stop-color="#9040FF"/>
<stop offset="1" stop-color="white" stop-opacity="0.33"/>
</radialGradient>
<radialGradient id="paint1_radial_7_35" cx="0" cy="0" r="1" gradientUnits="userSpaceOnUse" gradientTransform="translate(280.908 441.056) rotate(90) scale(441.056 954.908)">
<stop stop-color="#9040FF"/>
<stop offset="1" stop-color="white" stop-opacity="0.33"/>
</radialGradient>
<clipPath id="clip0_7_35">
<path d="M-439 0H842V355H-439V0Z" fill="white"/>
</clipPath>
</defs>
</svg>
