<svg width="12" height="12" viewBox="0 0 12 12" fill="none" xmlns="http://www.w3.org/2000/svg">
<path id="Vector" d="M11.043 0.995878C11.2248 0.78806 11.2037 0.472179 10.9959 0.290338C10.7881 0.108497 10.4722 0.129555 10.2904 0.337374L11.043 0.995878ZM0.95705 11.004C0.775209 11.2119 0.796268 11.5277 1.00409 11.7096C1.2119 11.8914 1.52779 11.8704 1.70963 11.6625L0.95705 11.004ZM0.666672 0.666626V0.166626C0.477286 0.166626 0.304154 0.273627 0.219458 0.443019C0.134762 0.612411 0.15304 0.815117 0.266672 0.966626L0.666672 0.666626ZM3.33334 0.666626L3.73334 0.366626C3.63891 0.240723 3.49072 0.166626 3.33334 0.166626V0.666626ZM11.3333 11.3333V11.8333C11.5227 11.8333 11.6959 11.7263 11.7806 11.5569C11.8652 11.3875 11.847 11.1848 11.7333 11.0333L11.3333 11.3333ZM8.66667 11.3333L8.26667 11.6333C8.3611 11.7592 8.50929 11.8333 8.66667 11.8333V11.3333ZM10.6667 0.666626L10.2904 0.337374L6.34167 4.85019L6.71795 5.17945L7.09424 5.5087L11.043 0.995878L10.6667 0.666626ZM5.28206 6.82047L4.90577 6.49122L0.95705 11.004L1.33334 11.3333L1.70963 11.6625L5.65834 7.14972L5.28206 6.82047ZM0.666672 0.666626V1.16663H3.33334V0.666626V0.166626H0.666672V0.666626ZM3.33334 0.666626L2.93334 0.966626L10.9333 11.6333L11.3333 11.3333L11.7333 11.0333L3.73334 0.366626L3.33334 0.666626ZM11.3333 11.3333V10.8333H8.66667V11.3333V11.8333H11.3333V11.3333ZM8.66667 11.3333L9.06667 11.0333L1.06667 0.366626L0.666672 0.666626L0.266672 0.966626L8.26667 11.6333L8.66667 11.3333Z" fill="white"/>
</svg>
